<svg xmlns="http://www.w3.org/2000/svg" version="1.1" xmlns:xlink="http://www.w3.org/1999/xlink" xmlns:svgjs="http://svgjs.dev/svgjs" width="2000" height="1500" viewBox="0 0 2000 1500"><rect width="2000" height="1500" fill="#ffffff"></rect><g transform="matrix(0.75,0,0,0.75,249.0909096520977,459.1280275512722)"><svg viewBox="0 0 396 154" data-background-color="#ffffff" preserveAspectRatio="xMidYMid meet" height="777" width="2000" xmlns="http://www.w3.org/2000/svg" xmlns:xlink="http://www.w3.org/1999/xlink"><g id="tight-bounds" transform="matrix(1,0,0,1,0.2399998518462212,-0.1329322057416107)"><svg viewBox="0 0 395.52 154.26586441148322" height="154.26586441148322" width="395.52"><g><svg viewBox="0 0 668.1321093957977 260.59359171978764" height="154.26586441148322" width="395.52"><g transform="matrix(1,0,0,1,272.61210939579763,29.537080154564364)"><svg viewBox="0 0 395.52 201.5194314106589" height="201.5194314106589" width="395.52"><g id="textblocktransform"><svg viewBox="0 0 395.52 201.5194314106589" height="201.5194314106589" width="395.52" id="textblock"><g><svg viewBox="0 0 395.52 119.37151339313463" height="119.37151339313463" width="395.52"><g transform="matrix(1,0,0,1,0,0)"><svg width="395.52" viewBox="2.1911805611129997 -38.38 129.17634304070705 38.99" height="119.37151339313463" data-palette-color="#1d597d"><path d="M13.38 0.59L13.38 0.59Q10.28 0.59 8.24 0.02 6.2-0.54 4.97-1.38 3.74-2.22 3.08-3.05L3.08-3.05Q2.86-3.37 2.69-3.66 2.51-3.96 2.44-4.32L2.44-4.32Q2.34-4.81 2.25-5.6 2.15-6.4 2.22-7.45L2.22-7.45Q2.25-7.89 2.39-8.06L2.39-8.06Q2.56-8.25 2.95-8.35L2.95-8.35Q3.66-8.52 4.8-8.65 5.93-8.79 6.42-8.79L6.42-8.79Q6.93-8.79 7.25-8.59 7.57-8.4 8.01-7.93L8.01-7.93Q8.5-7.42 9.69-6.63 10.89-5.83 13.38-5.83L13.38-5.83Q15.77-5.83 16.99-6.84 18.21-7.84 18.21-9.62L18.21-9.62Q18.21-10.57 17.64-11.41 17.07-12.26 15.55-13.1 14.04-13.94 11.23-14.87L11.23-14.87Q6.59-16.43 4.54-18.75 2.49-21.07 2.49-25.2L2.49-25.2Q2.49-28.61 4.15-30.91 5.81-33.2 8.74-34.38 11.67-35.55 15.5-35.55L15.5-35.55Q18.46-35.55 20.4-34.85 22.34-34.16 23.41-33.29 24.49-32.42 24.8-31.88L24.8-31.88Q25-31.57 25.06-31.41 25.12-31.25 25.15-30.98L25.15-30.98Q25.22-30.22 25.2-29.3 25.17-28.37 25.02-27.2L25.02-27.2Q24.95-26.81 24.76-26.66L24.76-26.66Q24.58-26.54 24.22-26.54L24.22-26.54Q21.85-26.49 20.56-26.78L20.56-26.78Q20.04-26.9 19.87-27.03 19.7-27.15 19.43-27.42L19.43-27.42Q19.04-27.88 18.2-28.5 17.36-29.13 15.5-29.13L15.5-29.13Q12.94-29.13 11.87-27.97 10.79-26.81 10.79-25.37L10.79-25.37Q10.79-23.66 12.38-22.69 13.96-21.73 17.38-20.51L17.38-20.51Q20.24-19.51 22.29-18.33 24.34-17.16 25.43-15.33 26.51-13.5 26.51-10.5L26.51-10.5Q26.51-6.76 24.79-4.3 23.07-1.83 20.1-0.62 17.14 0.59 13.38 0.59ZM41.89 0.61L41.89 0.61Q33.74 0.61 33.74-7.86L33.74-7.86 33.74-19.31 30.98-19.31Q30.25-19.31 29.97-19.62 29.68-19.92 29.68-20.65L29.68-20.65 29.68-23.66Q29.68-24.39 29.97-24.69 30.25-25 30.98-25L30.98-25 33.74-25 33.74-28.93Q33.74-29.52 33.98-29.83L33.98-29.83Q35.01-31.18 36.98-32.74L36.98-32.74Q37.33-32.98 37.6-32.98L37.6-32.98Q37.89-32.98 38.18-32.74L38.18-32.74Q39.23-31.93 39.95-31.23 40.67-30.52 41.18-29.83L41.18-29.83Q41.43-29.52 41.43-28.93L41.43-28.93 41.43-25 45.75-25Q46.48-25 46.76-24.69 47.04-24.39 47.04-23.66L47.04-23.66 47.04-20.65Q47.04-19.92 46.76-19.62 46.48-19.31 45.75-19.31L45.75-19.31 41.43-19.31 41.43-9.2Q41.43-5.3 44.26-5.3L44.26-5.3Q44.7-5.3 45.07-5.38 45.43-5.47 45.7-5.57L45.7-5.57Q46.21-5.76 46.42-5.71 46.63-5.66 46.8-5.18L46.8-5.18 48.22-1.39Q48.44-0.78 47.92-0.51L47.92-0.51Q47.56-0.34 46.15 0.13 44.75 0.61 41.89 0.61ZM64.28 0.61L64.28 0.61Q58.12 0.61 54.54-2.66 50.95-5.93 50.95-12.4L50.95-12.4Q50.95-19.04 54.67-22.33 58.39-25.61 64.62-25.61L64.62-25.61Q70.62-25.61 74.24-22.38 77.85-19.14 77.85-12.84L77.85-12.84Q77.85-6.27 74.24-2.83 70.62 0.61 64.28 0.61ZM64.52-5.3L64.52-5.3Q67.21-5.3 68.57-6.97 69.94-8.64 69.94-12.7L69.94-12.7Q69.94-16.55 68.56-18.13 67.18-19.7 64.47-19.7L64.47-19.7Q61.86-19.7 60.36-18.01 58.86-16.31 58.86-12.5L58.86-12.5Q58.86-8.52 60.29-6.91 61.71-5.3 64.52-5.3ZM95.55-25.61L95.55-25.61Q98.45-25.61 99.77-25.13 101.09-24.66 101.43-24.39L101.43-24.39Q101.97-24.05 102.26-23.51L102.26-23.51Q102.43-23.24 102.65-22.58 102.87-21.92 102.97-21.14L102.97-21.14Q103.09-20.53 103-20.28 102.9-20.02 102.39-19.65L102.39-19.65Q101.8-19.26 101.1-18.96 100.41-18.65 99.97-18.53L99.97-18.53Q99.6-18.43 99.41-18.48 99.21-18.53 98.87-18.77L98.87-18.77Q98.48-19.04 97.77-19.37 97.06-19.7 95.82-19.7L95.82-19.7Q94.23-19.7 92.8-18.92 91.37-18.14 90.48-16.58 89.59-15.01 89.59-12.67L89.59-12.67Q89.59-9.16 91.44-7.23 93.28-5.3 96.38-5.3L96.38-5.3Q97.97-5.3 99.02-5.63 100.07-5.96 100.68-6.3L100.68-6.3Q101.16-6.57 101.42-6.43 101.68-6.3 101.82-5.96L101.82-5.96 103.61-1.93Q103.87-1.29 103.31-1.03L103.31-1.03Q102.41-0.56 100.33 0.02 98.26 0.61 95.21 0.61L95.21 0.61Q89.08 0.61 85.42-2.65 81.76-5.91 81.76-12.4L81.76-12.4Q81.76-16.55 83.44-19.51 85.12-22.46 88.22-24.04 91.33-25.61 95.55-25.61ZM115.3-10.21L115.3-1.29Q115.3-0.56 114.99-0.28 114.69 0 113.95 0L113.95 0 108.93 0Q108.19 0 107.89-0.28 107.58-0.56 107.58-1.29L107.58-1.29 107.58-34.33Q107.58-34.91 107.83-35.23L107.83-35.23Q108.85-36.57 110.83-38.13L110.83-38.13Q111.17-38.38 111.44-38.38L111.44-38.38Q111.76-38.38 112.05-38.13L112.05-38.13Q113.1-37.33 113.82-36.62 114.54-35.91 115.05-35.23L115.05-35.23Q115.3-34.91 115.3-34.33L115.3-34.33 115.3-15.16 115.59-15.16Q119.3-15.16 120.63-16.49 121.96-17.82 121.96-20.19L121.96-20.19 121.96-21.51Q121.96-22.09 122.21-22.41L122.21-22.41Q123.23-23.75 125.21-25.32L125.21-25.32Q125.55-25.56 125.82-25.56L125.82-25.56Q126.14-25.56 126.43-25.32L126.43-25.32Q127.48-24.51 128.2-23.8 128.92-23.1 129.43-22.41L129.43-22.41Q129.68-22.09 129.68-21.51L129.68-21.51 129.68-20.19Q129.68-18.8 129.13-17.11 128.58-15.43 127.14-14.14 125.7-12.84 123.04-12.62L123.04-12.62 123.04-12.5Q125.09-11.6 126.58-10.11 128.07-8.62 129.07-6.92 130.07-5.22 130.62-3.67 131.17-2.12 131.34-1.05L131.34-1.05Q131.51 0 130.63 0L130.63 0 124.21 0Q123.38 0 123.26-1L123.26-1Q123.09-2.15 122.51-3.7 121.94-5.25 120.97-6.74 120.01-8.23 118.65-9.22 117.3-10.21 115.59-10.21L115.59-10.21 115.3-10.21Z" opacity="1" transform="matrix(1,0,0,1,0,0)" fill="#1d597d" class="wordmark-text-0" data-fill-palette-color="primary" id="text-0"></path></svg></g></svg></g><g transform="matrix(1,0,0,1,0,147.5522627889323)"><svg viewBox="0 0 232.20979200000002 53.96716862172662" height="53.96716862172662" width="232.20979200000002"><g transform="matrix(1,0,0,1,0,0)"><svg width="232.20979200000002" viewBox="0.82222211112 -36.8125 219.80777788888 51.092153593836" height="53.96716862172662" data-palette-color="#1d597d"><path d="M11.6-36.15L11.6-36.15Q11.4-36.6 11.5-36.6L11.5-36.6Q11.65-36.6 11.85-36.38 12.05-36.15 12.1-36.1L12.1-36.1Q12.6-35.35 13.2-34.48 13.8-33.6 14.35-32.4 14.9-31.2 15.35-29.63 15.8-28.05 16.05-25.9L16.05-25.9Q16.35-23.45 16.18-21.08 16-18.7 15.6-16.3L15.6-16.3Q15.55-16.2 15.5-15.8 15.45-15.4 15.3-15.4L15.3-15.4Q15.2-15.4 15.1-15.78 15-16.15 15-16.3L15-16.3Q14.9-16.85 14.8-17.6 14.7-18.35 14.63-19.18 14.55-20 14.53-20.78 14.5-21.55 14.5-22.15L14.5-22.15Q14.5-22.35 14.48-23.03 14.45-23.7 14.4-24.6 14.35-25.5 14.23-26.58 14.1-27.65 13.95-28.7L13.95-28.7Q14.05-27.15 13.95-25.6 13.85-24.05 13.7-22.48 13.55-20.9 13.45-19.33 13.35-17.75 13.45-16.15L13.45-16.15Q13.6-13.05 14.7-9.85 15.8-6.65 18.2-4.4L18.2-4.4Q18.5-4.1 18.45-4.1L18.45-4.1Q18.35-4.05 18.1-4.2L18.1-4.2Q16.35-5.2 15.2-6.6 14.05-8 13.33-9.65 12.6-11.3 12.25-13.08 11.9-14.85 11.85-16.65L11.85-16.65Q11.85-16.8 11.83-16.93 11.8-17.05 11.8-17.2L11.8-17.2Q10.8-14.35 9.58-11.7 8.35-9.05 7.18-6.6 6-4.15 4.98-1.98 3.95 0.2 3.35 2.05L3.35 2.05Q3.25 2.3 3.2 2.3L3.2 2.3Q3.1 2.3 3.1 2.15 3.1 2 3.1 1.95L3.1 1.95Q3.15-0.4 4.05-2.98 4.95-5.55 6.18-8.33 7.4-11.1 8.75-14.03 10.1-16.95 11.1-20L11.1-20Q11.7-21.95 12.13-24.05 12.55-26.15 12.65-28.25 12.75-30.35 12.5-32.38 12.25-34.4 11.6-36.15ZM17.8-7.35L17.8-7.35Q18.35-6.2 19.25-5.2L19.25-5.2Q19.6-7.3 20.6-9.38 21.6-11.45 22.88-13.55 24.15-15.65 25.55-17.75 26.95-19.85 28.15-22L28.15-22Q29.05-23.55 29.68-25.35 30.3-27.15 30.58-29.03 30.85-30.9 30.73-32.75 30.6-34.6 29.95-36.25L29.95-36.25Q29.8-36.5 29.9-36.6L29.9-36.6Q30-36.7 30.23-36.48 30.45-36.25 30.5-36.15L30.5-36.15Q31.1-35.3 31.48-33.93 31.85-32.55 32.02-30.88 32.2-29.2 32.2-27.35 32.2-25.5 32.05-23.65L32.05-23.65Q31.85-21.2 31.33-18.3 30.8-15.4 30.05-13L30.05-13Q30-12.9 29.88-12.55 29.75-12.2 29.6-12.2L29.6-12.2Q29.5-12.25 29.45-12.63 29.4-13 29.4-13.1L29.4-13.1Q29.4-13.65 29.43-14.43 29.45-15.2 29.5-16.03 29.55-16.85 29.63-17.63 29.7-18.4 29.8-18.95L29.8-18.95Q29.85-19.25 29.98-20.33 30.1-21.4 30.2-22.75L30.2-22.75Q29.6-21.35 29.25-20.25 28.9-19.15 28.65-18.1 28.4-17.05 28.23-15.9 28.05-14.75 27.9-13.2L27.9-13.2Q27.75-11.65 27.78-9.95 27.8-8.25 28.13-6.6 28.45-4.95 29.08-3.38 29.7-1.8 30.7-0.5L30.7-0.5Q30.9-0.2 30.8-0.15L30.8-0.15Q30.7-0.1 30.55-0.25L30.55-0.25Q28.95-1.55 28.03-3.18 27.1-4.8 26.65-6.6 26.2-8.4 26.18-10.28 26.15-12.15 26.35-13.95L26.35-13.95Q26.45-14.6 26.53-15.25 26.6-15.9 26.7-16.6L26.7-16.6Q25.55-14.75 24.4-13 23.25-11.25 22.25-9.53 21.25-7.8 20.48-6.13 19.7-4.45 19.3-2.8L19.3-2.8Q19.2-2.55 19.2-2.55L19.2-2.55Q19.1-2.55 19.1-2.75 19.1-2.95 19.1-3L19.1-3Q19.1-3.4 19.1-3.8 19.1-4.2 19.2-4.6L19.2-4.6Q18.8-4.8 18.5-4.98 18.2-5.15 17.93-5.4 17.65-5.65 17.38-6 17.1-6.35 16.8-6.9L16.8-6.9Q16.55-7.4 16.3-8.1 16.05-8.8 15.88-9.47 15.7-10.15 15.68-10.63 15.65-11.1 15.8-11.1L15.8-11.1Q15.9-11.1 16.03-10.93 16.15-10.75 16.3-10.5 16.45-10.25 16.55-10 16.65-9.75 16.7-9.65L16.7-9.65Q16.95-9.05 17.23-8.47 17.5-7.9 17.8-7.35ZM18.85-17.1L18.85-16.6Q19.95-18.75 21.13-20.78 22.3-22.8 23-24L23-24Q24.2-26.15 25.5-28.23 26.8-30.3 27.75-31.9L27.75-31.9Q27.85-32.15 27.98-32.35 28.1-32.55 28.2-32.45L28.2-32.45Q28.3-32.45 28.25-32.2 28.2-31.95 28.15-31.7L28.15-31.7Q27.45-28.1 25.63-24.9 23.8-21.7 21.8-18.45L21.8-18.45Q21.1-17.35 20.58-16.63 20.05-15.9 19.68-15.23 19.3-14.55 19.05-13.75 18.8-12.95 18.7-11.7L18.7-11.7Q18.9-12.25 19.15-12.75 19.4-13.25 19.65-13.7L19.65-13.7Q21.05-16.1 22.8-18.5 24.55-20.9 26.25-23L26.25-23Q26.35-23.1 26.63-23.43 26.9-23.75 27-23.7L27-23.7Q27.1-23.65 26.98-23.25 26.85-22.85 26.8-22.65L26.8-22.65Q26.55-22.1 26.18-21.3 25.8-20.5 25.38-19.68 24.95-18.85 24.5-18.07 24.05-17.3 23.7-16.8L23.7-16.8Q23.5-16.5 22.85-15.6 22.2-14.7 21.45-13.35 20.7-12 19.98-10.3 19.25-8.6 18.9-6.7L18.9-6.7Q18.75-7 18.53-7.45 18.3-7.9 18-8.9L18-8.9Q17.1-12.05 17.03-15.28 16.95-18.5 17-21.9L17-21.9Q17.05-24.05 17.03-26.2 17-28.35 16.3-30.75L16.3-30.75Q16.25-30.95 16.3-31.05L16.3-31.05Q16.4-31.05 16.6-30.75L16.6-30.75Q17.5-29.8 17.95-27.98 18.4-26.15 18.6-24.13 18.8-22.1 18.82-20.18 18.85-18.25 18.85-17.1L18.85-17.1ZM5.7-20.95L5.7-20.95Q6.55-23.55 7.63-26.2 8.7-28.85 9.5-30.95L9.5-30.95Q9.6-31.2 9.73-31.45 9.85-31.7 9.95-31.65L9.95-31.65Q10.05-31.65 10.03-31.33 10-31 10-30.75L10-30.75Q9.55-26.65 8.2-22.6 6.85-18.55 5.2-14.6L5.2-14.6Q4.2-12.1 3.05-9.58 1.9-7.05 1.15-4.1L1.15-4.1Q1.05-3.85 1.07-3.8 1.1-3.75 1.05-3.75L1.05-3.75Q0.9-3.85 0.9-4.2L0.9-4.2Q0.65-5.7 1.2-7.98 1.75-10.25 2.6-12.68 3.45-15.1 4.35-17.32 5.25-19.55 5.7-20.95ZM3.55-9.05L3.55-9.05Q4.8-11.9 6.25-14.93 7.7-17.95 9.05-20.7L9.05-20.7Q9.1-20.85 9.33-21.25 9.55-21.65 9.75-21.6L9.75-21.6Q9.85-21.6 9.8-21.15 9.75-20.7 9.65-20.5L9.65-20.5Q9.5-19.8 9.25-18.82 9-17.85 8.68-16.82 8.35-15.8 8-14.83 7.65-13.85 7.35-13.2L7.35-13.2Q7.2-12.9 6.83-11.93 6.45-10.95 5.93-9.6 5.4-8.25 4.83-6.73 4.25-5.2 3.75-3.83 3.25-2.45 2.88-1.38 2.5-0.3 2.45 0.15L2.45 0.15Q2.35 0.65 2.25 0.65L2.25 0.65Q2.15 0.65 2.13 0.45 2.1 0.25 2.05 0.15L2.05 0.15Q1.8-0.45 1.83-1.6 1.85-2.75 2.1-4.05 2.35-5.35 2.73-6.7 3.1-8.05 3.55-9.05ZM33.35-13.35L33.35-13.35Q33.1-11.1 32.58-8.85 32.05-6.6 31.65-4.85L31.65-4.85Q31.45-4.2 31.35-4.25L31.35-4.25Q31.25-4.25 31.23-4.48 31.2-4.7 31.15-4.95L31.15-4.95Q30.75-8.3 31.25-11.65 31.75-15 32.35-18.5L32.35-18.5Q32.75-20.6 33-22.83 33.25-25.05 33-27.6L33-27.6Q33-27.8 33.1-27.9L33.1-27.9Q33.2-27.9 33.23-27.78 33.25-27.65 33.35-27.6L33.35-27.6Q34.1-26.5 34.23-24.58 34.35-22.65 34.2-20.55 34.05-18.45 33.77-16.5 33.5-14.55 33.35-13.35ZM10.7-32.45L10.7-32.45Q10.6-33.5 10.43-34.4 10.25-35.3 10-36.25L10-36.25Q9.95-36.35 9.95-36.5 9.95-36.65 10-36.65L10-36.65Q10.15-36.65 10.3-36.5L10.3-36.5 10.5-36.3Q11.05-35.55 11.4-34.83 11.75-34.1 11.85-32.45L11.85-32.45Q11.9-31.8 11.85-30.85 11.8-29.9 11.68-29.05 11.55-28.2 11.38-27.6 11.2-27 11.05-27.05L11.05-27.05Q10.95-27.05 10.9-27.33 10.85-27.6 10.83-27.95 10.8-28.3 10.8-28.68 10.8-29.05 10.8-29.2L10.8-29.2Q10.8-30.05 10.8-30.83 10.8-31.6 10.7-32.45ZM29-33.1L29-33.1Q28.95-34 28.83-34.8 28.7-35.6 28.45-36.45L28.45-36.45Q28.4-36.55 28.38-36.7 28.35-36.85 28.45-36.8L28.45-36.8Q28.55-36.7 28.63-36.65 28.7-36.6 28.8-36.55L28.8-36.55 28.9-36.45Q29.45-35.75 29.78-35.1 30.1-34.45 30.15-32.95L30.15-32.95Q30.15-32.4 30.03-31.55 29.9-30.7 29.73-29.93 29.55-29.15 29.33-28.63 29.1-28.1 28.9-28.2L28.9-28.2Q28.8-28.25 28.8-28.53 28.8-28.8 28.8-29.13 28.8-29.45 28.85-29.75 28.9-30.05 28.9-30.2L28.9-30.2Q29-31 29.03-31.7 29.05-32.4 29-33.1ZM30.75-3.5L30.75-3.5Q31.05-2.65 31.43-1.95 31.8-1.25 32.2-0.55L32.2-0.55Q32.25-0.5 32.3-0.38 32.35-0.25 32.25-0.25L32.25-0.25Q32.1-0.25 32.02-0.3 31.95-0.35 31.85-0.4L31.85-0.4Q31.75-0.45 31.7-0.5L31.7-0.5Q31-1.05 30.55-1.55 30.1-2.05 29.65-3.35L29.65-3.35Q29.5-3.85 29.35-4.6 29.2-5.35 29.15-6.05 29.1-6.75 29.15-7.25 29.2-7.75 29.4-7.75L29.4-7.75Q29.45-7.75 29.55-7.53 29.65-7.3 29.73-7.03 29.8-6.75 29.88-6.48 29.95-6.2 30-6.1L30-6.1Q30.25-5.4 30.4-4.75 30.55-4.1 30.75-3.5ZM54.95-17.6L54.95-17.6Q54.55-15.6 53.6-13.6 52.65-11.6 51.8-9.85L51.8-9.85Q51.75-9.75 51.57-9.5 51.4-9.25 51.3-9.25L51.3-9.25Q51.15-9.3 51.15-9.58 51.15-9.85 51.15-9.95L51.15-9.95Q51.2-10.4 51.32-11.03 51.45-11.65 51.55-12.33 51.65-13 51.77-13.63 51.9-14.25 52.05-14.75L52.05-14.75Q52.5-16.45 52.8-17.68 53.1-18.9 53.25-19.9 53.4-20.9 53.42-21.8 53.45-22.7 53.3-23.75L53.3-23.75Q53.25-24.15 53.35-24.25L53.35-24.25Q53.45-24.3 53.6-24.15 53.75-24 53.85-23.85L53.85-23.85Q54.7-22.5 55-20.88 55.3-19.25 54.95-17.6ZM55.95-21.25L56.15-20.95Q56.8-20 56.8-18.45 56.8-16.9 56.5-15.28 56.2-13.65 55.75-12.15 55.3-10.65 55.1-9.75L55.1-9.75Q54.7-8 54-6.25 53.3-4.5 52.8-3.15L52.8-3.15Q52.75-3 52.65-2.83 52.55-2.65 52.45-2.65L52.45-2.65Q52.35-2.65 52.35-2.85 52.35-3.05 52.35-3.2L52.35-3.2Q52.2-5.95 52.95-8.58 53.7-11.2 54.55-13.9L54.55-13.9Q55.05-15.55 55.5-17.28 55.95-19 55.9-21.05L55.9-21.05Q55.9-21.25 55.95-21.25L55.95-21.25ZM51.45-21.8L51.45-21.8Q48.4-20.55 46.27-18.23 44.15-15.9 43-13L43-13Q42.5-11.7 42.25-10.68 42-9.65 41.85-8.45L41.85-8.45Q41.8-8.2 42-7.95 42.2-7.7 42.4-7.95L42.4-7.95Q43.3-9.05 44.7-10.75 46.1-12.45 47.5-14.35 48.9-16.25 50.02-18.2 51.15-20.15 51.45-21.8ZM48.1-4.85L48.1-4.85Q47.35-3.8 46.65-2.9 45.95-2 45.1-1.33 44.25-0.65 43.2-0.25 42.15 0.15 40.8 0.2L40.8 0.2Q38.55 0.3 37.37-0.95 36.2-2.2 35.75-4 35.3-5.8 35.42-7.73 35.55-9.65 35.95-10.9L35.95-10.9Q36.5-12.65 37.27-14.23 38.05-15.8 38.92-17.07 39.8-18.35 40.72-19.28 41.65-20.2 42.55-20.7L42.55-20.7Q42.6-20.7 42.77-20.8 42.95-20.9 42.95-20.75L42.95-20.75Q43-20.75 42.9-20.6 42.8-20.45 42.7-20.35L42.7-20.35Q40.1-17.65 38.57-14.25 37.05-10.85 36.85-7.25L36.85-7.25Q36.8-6.35 36.92-5.3 37.05-4.25 37.42-3.33 37.8-2.4 38.5-1.78 39.2-1.15 40.4-1.15L40.4-1.15Q41.35-1.15 42.15-1.48 42.95-1.8 43.65-2.33 44.35-2.85 44.92-3.48 45.5-4.1 45.95-4.65L45.95-4.65Q46.95-5.9 47.8-7.25L47.8-7.25Q47.8-8.25 47.92-9.2 48.05-10.15 48.3-11.1L48.3-11.1Q48.45-11.8 48.57-12.23 48.7-12.65 48.82-13.03 48.95-13.4 49.07-13.83 49.2-14.25 49.45-14.95L49.45-14.95Q48.65-13.55 47.87-12.33 47.1-11.1 46.22-9.98 45.35-8.85 44.42-7.78 43.5-6.7 42.4-5.6L42.4-5.6Q41.55-4.75 41-5.05 40.45-5.35 40.35-6.45L40.35-6.45Q40.25-8.15 40.52-9.75 40.8-11.35 41.5-13.1L41.5-13.1Q42.15-14.7 43.12-16.2 44.1-17.7 45.37-18.93 46.65-20.15 48.2-21.03 49.75-21.9 51.5-22.2L51.5-22.2Q51.6-22.75 51.67-23.15 51.75-23.55 51.8-23.95L51.8-23.95Q51.9-24.5 51.9-24.5L51.9-24.5Q52-24.55 52.12-24.4 52.25-24.25 52.35-24L52.35-24Q52.95-22.35 52.75-20.7 52.55-19.05 52.02-17.35 51.5-15.65 50.8-13.88 50.1-12.1 49.65-10.3L49.65-10.3Q49.05-7.75 49.32-5.03 49.6-2.3 51.45-0.1L51.45-0.1Q51.6 0.1 51.6 0.1L51.6 0.1Q51.55 0.15 51.3 0L51.3 0Q49.85-0.9 49.12-2.18 48.4-3.45 48.1-4.85ZM49.85-22.55L49.85-22.55Q49.95-22.45 49.82-22.4 49.7-22.35 49.3-22.25L49.3-22.25Q48.65-22.05 47.72-21.5 46.8-20.95 45.77-20.1 44.75-19.25 43.75-18.13 42.75-17 42-15.7L42-15.7Q41.25-14.35 40.72-13.05 40.2-11.75 39.87-10.68 39.55-9.6 39.4-8.83 39.25-8.05 39.25-7.75L39.25-7.75Q39.25-7 39.25-6.18 39.25-5.35 39.45-4.7 39.65-4.05 40.15-3.7 40.65-3.35 41.65-3.5L41.65-3.5Q41.7-3.5 41.9-3.58 42.1-3.65 42.3-3.73 42.5-3.8 42.67-3.85 42.85-3.9 42.9-3.9L42.9-3.9Q42.95-3.8 42.82-3.65 42.7-3.5 42.5-3.33 42.3-3.15 42.12-3 41.95-2.85 41.9-2.8L41.9-2.8Q40.65-2.05 39.8-2.35 38.95-2.65 38.47-3.48 38-4.3 37.82-5.43 37.65-6.55 37.7-7.45L37.7-7.45Q37.8-9.2 38.25-10.93 38.7-12.65 39.4-14.4L39.4-14.4Q39.95-15.75 41.05-17.18 42.15-18.6 43.52-19.8 44.9-21 46.4-21.78 47.9-22.55 49.3-22.6L49.3-22.6Q49.8-22.6 49.85-22.55ZM52.8-0.1L52.8-0.1Q52.9 0.05 52.85 0.1L52.85 0.1Q52.7 0.1 52.45 0L52.45 0Q52.3-0.1 51.65-0.6 51-1.1 50.7-2.2L50.7-2.2Q50.6-2.6 50.52-3.23 50.45-3.85 50.45-4.4 50.45-4.95 50.52-5.35 50.6-5.75 50.75-5.75L50.75-5.75Q50.9-5.75 51.07-5.15 51.25-4.55 51.3-4.4L51.3-4.4Q51.45-3.7 51.57-3.18 51.7-2.65 51.85-2.2L51.85-2.2Q52.05-1.65 52.37-0.95 52.7-0.25 52.8-0.1ZM74.3-17.95L74.3-17.95Q74.4-16.4 74.1-14.98 73.8-13.55 73.35-12.35L73.35-12.35Q73.25-12.1 73.02-11.8 72.8-11.5 72.6-11.6L72.6-11.6Q72.5-11.6 72.55-11.95 72.6-12.3 72.6-12.45L72.6-12.45Q72.65-13 72.67-13.83 72.7-14.65 72.7-15.5 72.7-16.35 72.62-17.13 72.55-17.9 72.4-18.45L72.4-18.45Q71.95-20.05 70.97-20.23 70-20.4 69-19.7 68-19 67.1-17.75 66.2-16.5 65.9-15.3L65.9-15.3Q66.2-15.75 66.67-16.38 67.15-17 67.75-17.57 68.35-18.15 69.02-18.53 69.7-18.9 70.3-18.85L70.3-18.85Q70.95-18.8 71.22-18.15 71.5-17.5 71.55-16.55 71.6-15.6 71.45-14.5 71.3-13.4 71.1-12.45L71.1-12.45Q70.75-10.9 70.5-9.25 70.25-7.6 70.32-6.03 70.4-4.45 70.87-2.98 71.35-1.5 72.5-0.25L72.5-0.25Q72.6-0.1 72.65 0 72.7 0.1 72.4-0.05L72.4-0.05Q71.1-0.8 70.32-1.8 69.55-2.8 69.15-3.95 68.75-5.1 68.67-6.35 68.6-7.6 68.7-8.85L68.7-8.85Q68.9-10.65 69.3-12 69.7-13.35 69.9-15.05L69.9-15.05Q70-16.1 69.75-16.43 69.5-16.75 69.15-16.8L69.15-16.8Q68.65-16.85 68.02-16.28 67.4-15.7 66.72-14.65 66.05-13.6 65.42-12.2 64.8-10.8 64.35-9.25L64.35-9.25Q63.95-7.7 63.37-6.03 62.8-4.35 62.3-3.15L62.3-3.15Q62.1-2.7 62-2.7L62-2.7Q61.9-2.7 61.82-2.9 61.75-3.1 61.75-3.2L61.75-3.2Q61.55-5.7 62.2-8.15 62.85-10.6 63.7-13.1L63.7-13.1Q64.2-14.65 64.6-15.85 65-17.05 65-18.9L65-18.9Q65-19.7 65.4-20.58 65.8-21.45 66.57-22.18 67.35-22.9 68.5-23.35 69.65-23.8 71.1-23.75L71.1-23.75Q73.5-23.7 74.8-22.63 76.1-21.55 76.62-19.9 77.15-18.25 77.07-16.32 77-14.4 76.65-12.6L76.65-12.6Q76.35-11.25 75.95-10.15 75.55-9.05 75.1-8.1 74.65-7.15 74.25-6.3 73.85-5.45 73.6-4.6L73.6-4.6Q73.55-4.45 73.5-4.28 73.45-4.1 73.35-4.1L73.35-4.1Q73.25-4.1 73.2-4.3 73.15-4.5 73.15-4.75L73.15-4.75Q73.05-6.45 73.5-8.03 73.95-9.6 74.45-11.28 74.95-12.95 75.2-14.8 75.45-16.65 75-18.9L75-18.9Q74.55-21.3 72.8-22.1 71.05-22.9 68.8-22L68.8-22Q68.5-21.85 68-21.55 67.5-21.25 67.02-20.75 66.55-20.25 66.15-19.58 65.75-18.9 65.65-18.1L65.65-18.1Q66.25-19 67.05-19.8 67.85-20.6 68.75-21.08 69.65-21.55 70.57-21.65 71.5-21.75 72.4-21.3L72.4-21.3Q73.45-20.75 73.85-19.78 74.25-18.8 74.3-17.95ZM64.1-16.6L64.1-16.6Q63.55-14.7 62.62-12.85 61.7-11 61.1-9.3L61.1-9.3Q61.05-9.2 60.92-8.93 60.8-8.65 60.6-8.7L60.6-8.7Q60.5-8.75 60.47-9.03 60.45-9.3 60.45-9.45L60.45-9.45Q60.45-10.25 60.72-11.58 61-12.9 61.3-13.75L61.3-13.75Q61.4-14.05 61.67-15.28 61.95-16.5 62.17-17.95 62.4-19.4 62.47-20.75 62.55-22.1 62.2-22.7L62.2-22.7Q62-23.05 62.2-23.05L62.2-23.05Q62.35-23.05 62.6-22.8L62.6-22.8Q63.2-22.25 63.57-21.45 63.95-20.65 64.12-19.78 64.3-18.9 64.27-18.05 64.25-17.2 64.1-16.6ZM74.3-0.05L74.3-0.05Q74.2 0 73.9-0.1L73.9-0.1Q73.75-0.15 73.65-0.2L73.65-0.2Q72.95-0.65 72.45-1.23 71.95-1.8 71.45-3.2L71.45-3.2Q71.3-3.7 71.22-4.48 71.15-5.25 71.2-6 71.25-6.75 71.37-7.28 71.5-7.8 71.75-7.8L71.75-7.8Q71.85-7.8 71.97-7.23 72.1-6.65 72.22-5.9 72.35-5.15 72.5-4.4 72.65-3.65 72.75-3.3L72.75-3.3Q73-2.55 73.25-1.8 73.5-1.05 74.05-0.5L74.05-0.5Q74.15-0.4 74.25-0.23 74.35-0.05 74.3-0.05ZM60.8 0.05L60.8 0.05Q59.25-1 58.42-2.25 57.6-3.5 57.3-4.85 57-6.2 57.07-7.6 57.15-9 57.45-10.35L57.45-10.35Q57.85-12.15 58.47-13.93 59.1-15.7 59.67-17.38 60.25-19.05 60.57-20.65 60.9-22.25 60.65-23.7L60.65-23.7Q60.65-23.9 60.7-23.9L60.7-23.9Q60.8-23.9 60.95-23.65L60.95-23.65Q61.85-22.05 61.8-20.35 61.75-18.65 61.25-16.88 60.75-15.1 60.02-13.28 59.3-11.45 58.9-9.6L58.9-9.6Q58.65-8.45 58.57-7.18 58.5-5.9 58.75-4.65 59-3.4 59.57-2.2 60.15-1 61.15-0.05L61.15-0.05Q61.35 0.05 61.25 0.15L61.25 0.15Q61.15 0.25 61.02 0.18 60.9 0.1 60.8 0.05ZM62.7 0.25L62.7 0.25Q62.55 0.35 62.3 0.1L62.3 0.1Q61.75-0.3 61.22-0.75 60.7-1.2 60.2-2.2L60.2-2.2Q60-2.55 59.9-3.1 59.8-3.65 59.8-4.17 59.8-4.7 59.87-5.05 59.95-5.4 60.1-5.4L60.1-5.4Q60.3-5.35 60.42-4.85 60.55-4.35 60.65-4.2L60.65-4.2Q60.85-3.65 61-3.18 61.15-2.7 61.35-2.25L61.35-2.25Q61.65-1.55 61.95-1.05 62.25-0.55 62.65-0.05L62.65-0.05Q62.7 0 62.75 0.1 62.8 0.2 62.7 0.25ZM97.44-17.6L97.44-17.6Q97.04-15.6 96.09-13.6 95.14-11.6 94.29-9.85L94.29-9.85Q94.24-9.75 94.07-9.5 93.89-9.25 93.79-9.25L93.79-9.25Q93.64-9.3 93.64-9.58 93.64-9.85 93.64-9.95L93.64-9.95Q93.69-10.4 93.82-11.03 93.94-11.65 94.04-12.33 94.14-13 94.27-13.63 94.39-14.25 94.54-14.75L94.54-14.75Q94.99-16.45 95.29-17.68 95.59-18.9 95.74-19.9 95.89-20.9 95.92-21.8 95.94-22.7 95.79-23.75L95.79-23.75Q95.74-24.15 95.84-24.25L95.84-24.25Q95.94-24.3 96.09-24.15 96.24-24 96.34-23.85L96.34-23.85Q97.19-22.5 97.49-20.88 97.79-19.25 97.44-17.6ZM98.44-21.25L98.64-20.95Q99.29-20 99.29-18.45 99.29-16.9 98.99-15.28 98.69-13.65 98.24-12.15 97.79-10.65 97.59-9.75L97.59-9.75Q97.19-8 96.49-6.25 95.79-4.5 95.29-3.15L95.29-3.15Q95.24-3 95.14-2.83 95.04-2.65 94.94-2.65L94.94-2.65Q94.84-2.65 94.84-2.85 94.84-3.05 94.84-3.2L94.84-3.2Q94.69-5.95 95.44-8.58 96.19-11.2 97.04-13.9L97.04-13.9Q97.54-15.55 97.99-17.28 98.44-19 98.39-21.05L98.39-21.05Q98.39-21.25 98.44-21.25L98.44-21.25ZM93.94-21.8L93.94-21.8Q90.89-20.55 88.77-18.23 86.64-15.9 85.49-13L85.49-13Q84.99-11.7 84.74-10.68 84.49-9.65 84.34-8.45L84.34-8.45Q84.29-8.2 84.49-7.95 84.69-7.7 84.89-7.95L84.89-7.95Q85.79-9.05 87.19-10.75 88.59-12.45 89.99-14.35 91.39-16.25 92.52-18.2 93.64-20.15 93.94-21.8ZM90.59-4.85L90.59-4.85Q89.84-3.8 89.14-2.9 88.44-2 87.59-1.33 86.74-0.65 85.69-0.25 84.64 0.15 83.29 0.2L83.29 0.2Q81.04 0.3 79.87-0.95 78.69-2.2 78.24-4 77.79-5.8 77.92-7.73 78.04-9.65 78.44-10.9L78.44-10.9Q78.99-12.65 79.77-14.23 80.54-15.8 81.42-17.07 82.29-18.35 83.22-19.28 84.14-20.2 85.04-20.7L85.04-20.7Q85.09-20.7 85.27-20.8 85.44-20.9 85.44-20.75L85.44-20.75Q85.49-20.75 85.39-20.6 85.29-20.45 85.19-20.35L85.19-20.35Q82.59-17.65 81.07-14.25 79.54-10.85 79.34-7.25L79.34-7.25Q79.29-6.35 79.42-5.3 79.54-4.25 79.92-3.33 80.29-2.4 80.99-1.78 81.69-1.15 82.89-1.15L82.89-1.15Q83.84-1.15 84.64-1.48 85.44-1.8 86.14-2.33 86.84-2.85 87.42-3.48 87.99-4.1 88.44-4.65L88.44-4.65Q89.44-5.9 90.29-7.25L90.29-7.25Q90.29-8.25 90.42-9.2 90.54-10.15 90.79-11.1L90.79-11.1Q90.94-11.8 91.07-12.23 91.19-12.65 91.32-13.03 91.44-13.4 91.57-13.83 91.69-14.25 91.94-14.95L91.94-14.95Q91.14-13.55 90.37-12.33 89.59-11.1 88.72-9.98 87.84-8.85 86.92-7.78 85.99-6.7 84.89-5.6L84.89-5.6Q84.04-4.75 83.49-5.05 82.94-5.35 82.84-6.45L82.84-6.45Q82.74-8.15 83.02-9.75 83.29-11.35 83.99-13.1L83.99-13.1Q84.64-14.7 85.62-16.2 86.59-17.7 87.87-18.93 89.14-20.15 90.69-21.03 92.24-21.9 93.99-22.2L93.99-22.2Q94.09-22.75 94.17-23.15 94.24-23.55 94.29-23.95L94.29-23.95Q94.39-24.5 94.39-24.5L94.39-24.5Q94.49-24.55 94.62-24.4 94.74-24.25 94.84-24L94.84-24Q95.44-22.35 95.24-20.7 95.04-19.05 94.52-17.35 93.99-15.65 93.29-13.88 92.59-12.1 92.14-10.3L92.14-10.3Q91.54-7.75 91.82-5.03 92.09-2.3 93.94-0.1L93.94-0.1Q94.09 0.1 94.09 0.1L94.09 0.1Q94.04 0.15 93.79 0L93.79 0Q92.34-0.9 91.62-2.18 90.89-3.45 90.59-4.85ZM92.34-22.55L92.34-22.55Q92.44-22.45 92.32-22.4 92.19-22.35 91.79-22.25L91.79-22.25Q91.14-22.05 90.22-21.5 89.29-20.95 88.27-20.1 87.24-19.25 86.24-18.13 85.24-17 84.49-15.7L84.49-15.7Q83.74-14.35 83.22-13.05 82.69-11.75 82.37-10.68 82.04-9.6 81.89-8.83 81.74-8.05 81.74-7.75L81.74-7.75Q81.74-7 81.74-6.18 81.74-5.35 81.94-4.7 82.14-4.05 82.64-3.7 83.14-3.35 84.14-3.5L84.14-3.5Q84.19-3.5 84.39-3.58 84.59-3.65 84.79-3.73 84.99-3.8 85.17-3.85 85.34-3.9 85.39-3.9L85.39-3.9Q85.44-3.8 85.32-3.65 85.19-3.5 84.99-3.33 84.79-3.15 84.62-3 84.44-2.85 84.39-2.8L84.39-2.8Q83.14-2.05 82.29-2.35 81.44-2.65 80.97-3.48 80.49-4.3 80.32-5.43 80.14-6.55 80.19-7.45L80.19-7.45Q80.29-9.2 80.74-10.93 81.19-12.65 81.89-14.4L81.89-14.4Q82.44-15.75 83.54-17.18 84.64-18.6 86.02-19.8 87.39-21 88.89-21.78 90.39-22.55 91.79-22.6L91.79-22.6Q92.29-22.6 92.34-22.55ZM95.29-0.1L95.29-0.1Q95.39 0.05 95.34 0.1L95.34 0.1Q95.19 0.1 94.94 0L94.94 0Q94.79-0.1 94.14-0.6 93.49-1.1 93.19-2.2L93.19-2.2Q93.09-2.6 93.02-3.23 92.94-3.85 92.94-4.4 92.94-4.95 93.02-5.35 93.09-5.75 93.24-5.75L93.24-5.75Q93.39-5.75 93.57-5.15 93.74-4.55 93.79-4.4L93.79-4.4Q93.94-3.7 94.07-3.18 94.19-2.65 94.34-2.2L94.34-2.2Q94.54-1.65 94.87-0.95 95.19-0.25 95.29-0.1ZM118.39-22.2L118.39-22.35Q118.29-22.4 118.17-22.2 118.04-22 117.94-21.9L117.94-21.9Q117.19-20.95 116.59-19.55 115.99-18.15 115.57-16.6 115.14-15.05 114.87-13.5 114.59-11.95 114.39-10.75L114.39-10.75Q114.14-9.05 113.97-7.53 113.79-6 113.64-4.55 113.49-3.1 113.39-1.63 113.29-0.15 113.14 1.4L113.14 1.4Q113.19 1.45 113.19 1.68 113.19 1.9 113.19 2.13 113.19 2.35 113.19 2.53 113.19 2.7 113.29 2.7L113.29 2.7Q113.34 2.7 113.44 2.53 113.54 2.35 113.64 2.15 113.74 1.95 113.79 1.75 113.84 1.55 113.84 1.55L113.84 1.55Q114.39 0.35 114.79-1.25 115.19-2.85 115.44-4.45L115.44-4.45Q115.49-4.85 115.64-6.1 115.79-7.35 115.99-9 116.19-10.65 116.47-12.58 116.74-14.5 117.02-16.28 117.29-18.05 117.62-19.5 117.94-20.95 118.24-21.7L118.24-21.7Q118.29-21.9 118.34-22 118.39-22.1 118.39-22.2L118.39-22.2ZM116.74-22.55L116.74-22.55Q116.74-22.6 116.39-22.6L116.39-22.6Q116.24-22.6 116.09-22.55L116.09-22.55Q114.19-22.35 112.59-21.53 110.99-20.7 109.67-19.48 108.34-18.25 107.32-16.7 106.29-15.15 105.64-13.5L105.64-13.5Q104.94-11.8 104.59-9.9 104.24-8 104.34-6.35L104.34-6.35Q104.49-4.2 106.24-5.95L106.24-5.95Q107.74-7.45 109.07-9.2 110.39-10.95 111.57-12.9 112.74-14.85 113.79-16.88 114.84-18.9 115.89-20.95L115.89-20.95Q116.09-21.35 116.04-21.35L116.04-21.35Q115.94-21.45 115.82-21.35 115.69-21.25 115.69-21.15L115.69-21.15Q112.99-17.7 110.67-14.55 108.34-11.4 106.39-8.3L106.39-8.3Q106.14-8.05 106.07-8.15 105.99-8.25 106.04-8.5L106.04-8.5Q106.14-9.65 106.42-10.88 106.69-12.1 107.19-13.35L107.19-13.35Q108.39-16.4 110.64-18.75 112.89-21.1 116.29-22.25L116.29-22.25Q116.74-22.45 116.74-22.55ZM114.04-22.9L114.04-22.9Q113.99-23 113.82-23 113.64-23 113.49-23L113.49-23Q112.09-23 110.57-22.2 109.04-21.4 107.64-20.18 106.24-18.95 105.14-17.48 104.04-16 103.49-14.65L103.49-14.65Q102.79-12.85 102.32-11.18 101.84-9.5 101.79-7.8L101.79-7.8Q101.74-6.9 101.87-6.05 101.99-5.2 102.34-4.2L102.34-4.2Q102.54-3.6 103.02-3.25 103.49-2.9 104.02-2.8 104.54-2.7 105.09-2.8 105.64-2.9 106.04-3.2L106.04-3.2Q106.09-3.25 106.27-3.4 106.44-3.55 106.62-3.73 106.79-3.9 106.92-4.05 107.04-4.2 106.99-4.3L106.99-4.3Q106.94-4.4 106.52-4.17 106.09-3.95 105.79-3.9L105.79-3.9Q104.74-3.7 104.22-4.05 103.69-4.4 103.47-5.08 103.24-5.75 103.27-6.58 103.29-7.4 103.39-8.2L103.39-8.2Q103.39-8.5 103.52-9.25 103.64-10 103.94-11.08 104.24-12.15 104.77-13.45 105.29-14.75 106.04-16.05L106.04-16.05Q106.79-17.35 107.82-18.45 108.84-19.55 109.89-20.4 110.94-21.25 111.92-21.8 112.89-22.35 113.59-22.55L113.59-22.55Q113.94-22.65 113.99-22.73 114.04-22.8 114.04-22.9ZM120.09-23.25L120.09-23.45Q119.94-23.45 119.84-23.25L119.84-23.25Q119.79-23.15 119.74-23L119.74-23Q118.24-19.9 117.64-16.63 117.04-13.35 116.74-9.95 116.44-6.55 116.14-3.1 115.84 0.35 114.94 3.8L114.94 3.8Q114.64 4.9 114.34 6.1 114.04 7.3 113.54 8.45 113.04 9.6 112.22 10.63 111.39 11.65 109.99 12.35L109.99 12.35Q108.39 13.2 107.04 13.08 105.69 12.95 104.54 12.35 103.39 11.75 102.44 10.83 101.49 9.9 100.79 9.15L100.79 9.15Q100.69 9.05 100.59 8.93 100.49 8.8 100.44 8.85L100.44 8.85Q100.34 8.9 100.42 9.08 100.49 9.25 100.54 9.35L100.54 9.35Q101.69 11.5 104.04 13.1L104.04 13.1Q104.59 13.5 105.39 13.8 106.19 14.1 107.12 14.23 108.04 14.35 109.02 14.18 109.99 14 110.89 13.4L110.89 13.4Q112.54 12.3 113.52 11.08 114.49 9.85 115.09 8.58 115.69 7.3 116.02 5.95 116.34 4.6 116.64 3.3L116.64 3.3Q117.49-0.1 117.82-3.48 118.14-6.85 118.34-10.15 118.54-13.45 118.84-16.68 119.14-19.9 119.99-22.95L119.99-22.95Q120.09-23.15 120.09-23.25L120.09-23.25ZM114.19-13.9L114.19-13.9Q114.44-14.95 114.87-16.07 115.29-17.2 115.54-18.3L115.54-18.3Q115.54-18.4 115.62-18.65 115.69-18.9 115.64-18.9L115.64-18.9Q115.54-18.95 115.34-18.65 115.14-18.35 115.14-18.3L115.14-18.3Q114.44-17.15 113.89-15.88 113.34-14.6 112.89-13.55L112.89-13.55Q112.79-13.3 112.47-12.7 112.14-12.1 111.82-11.43 111.49-10.75 111.27-10.18 111.04-9.6 111.19-9.5L111.19-9.5Q111.29-9.5 111.49-9.73 111.69-9.95 111.79-10.05L111.79-10.05Q111.94-10.3 112.14-10.58 112.34-10.85 112.54-11.1L112.54-11.1Q112.24-9.85 112.02-9.03 111.79-8.2 111.54-7.55 111.29-6.9 110.97-6.33 110.64-5.75 110.09-5L110.09-5Q109.69-4.45 109.12-3.83 108.54-3.2 107.82-2.68 107.09-2.15 106.24-1.83 105.39-1.5 104.44-1.5L104.44-1.5Q103.24-1.5 102.54-2.13 101.84-2.75 101.49-3.68 101.14-4.6 101.04-5.65 100.94-6.7 100.99-7.6L100.99-7.6Q101.19-11.2 102.67-14.63 104.14-18.05 106.79-20.75L106.79-20.75Q106.79-20.8 106.94-20.95 107.09-21.1 107.09-21.15L107.09-21.15Q106.99-21.25 106.84-21.15L106.84-21.15 106.64-21.05Q105.74-20.5 104.77-19.55 103.79-18.6 102.92-17.32 102.04-16.05 101.32-14.5 100.59-12.95 100.09-11.3L100.09-11.3Q99.84-10.45 99.72-9.28 99.59-8.1 99.67-6.83 99.74-5.55 100.02-4.28 100.29-3 100.92-2.02 101.54-1.05 102.52-0.48 103.49 0.1 104.94 0L104.94 0Q106.39-0.1 107.27-0.5 108.14-0.9 108.69-1.35L108.69-1.35Q109.39-1.9 109.94-2.5 110.49-3.1 111.04-3.65L111.04-3.65Q110.74-1.9 110.47-0.68 110.19 0.55 109.94 1.65L109.94 1.65Q109.59 3.15 109.29 4.53 108.99 5.9 108.64 6.95 108.29 8 107.84 8.68 107.39 9.35 106.79 9.45L106.79 9.45Q106.09 9.45 106.09 9.6L106.09 9.6Q106.04 9.75 106.29 9.85 106.54 9.95 106.79 10L106.79 10Q107.54 10.15 108.22 9.75 108.89 9.35 109.42 8.58 109.94 7.8 110.37 6.75 110.79 5.7 111.09 4.6L111.09 4.6Q111.69 2.3 112.09 0.13 112.49-2.05 112.84-4.45L112.84-4.45Q113.19-6.8 113.42-9.15 113.64-11.5 114.19-13.9ZM108.59 10.9L108.59 10.9Q108.49 10.8 108.32 10.83 108.14 10.85 108.09 10.85L108.09 10.85Q107.24 11 106.42 10.8 105.59 10.6 104.74 10.25L104.74 10.25Q103.79 9.85 102.99 9.28 102.19 8.7 101.19 8.05L101.19 8.05Q101.09 7.95 100.89 7.85 100.69 7.75 100.69 7.85L100.69 7.85Q100.64 7.9 100.77 8.1 100.89 8.3 100.99 8.4L100.99 8.4Q101.64 9.25 102.37 10 103.09 10.75 104.24 11.2L104.24 11.2Q104.99 11.5 105.79 11.6 106.59 11.7 107.27 11.63 107.94 11.55 108.34 11.35 108.74 11.15 108.59 10.9ZM135.04-20.4L135.04-20.4Q135.44-19.9 135.66-19.15 135.89-18.4 135.84-17.53 135.79-16.65 135.44-15.7 135.09-14.75 134.34-13.85L134.34-13.85Q132.89-12.15 131.16-11.23 129.44-10.3 128.04-10.3L128.04-10.3Q127.19-10.3 128.04-10.6L128.04-10.6Q128.49-10.75 129.11-11.08 129.74-11.4 130.44-11.88 131.14-12.35 131.86-13 132.59-13.65 133.19-14.5L133.19-14.5Q134.19-15.9 134.36-17.23 134.54-18.55 133.84-19.25L133.84-19.25Q133.24-19.85 132.44-19.93 131.64-20 130.04-19.05L130.04-19.05Q128.59-18.2 127.44-16.95 126.29-15.7 125.29-14.3L125.29-14.3Q124.74-13.6 124.56-13.6 124.39-13.6 124.69-14.5L124.69-14.5Q125.29-16.25 126.36-17.75 127.44-19.25 128.94-20.3L128.94-20.3Q130.04-21.05 130.96-21.35 131.89-21.65 132.66-21.6 133.44-21.55 134.04-21.23 134.64-20.9 135.04-20.4ZM137.74-16.9L137.74-16.9Q137.54-15.7 137.11-14.88 136.69-14.05 136.16-13.48 135.64-12.9 135.11-12.55 134.59-12.2 134.19-11.9L134.19-11.9Q133.99-11.75 133.89-11.85 133.79-11.95 134.04-12.2L134.04-12.2Q134.94-12.95 135.86-14.23 136.79-15.5 136.84-17.05L136.84-17.05Q136.84-19.7 135.54-21.1L135.54-21.1Q134.24-22.5 132.29-22.33 130.34-22.15 128.24-20.8L128.24-20.8Q126.89-19.95 125.86-18.82 124.84-17.7 124.09-16.43 123.34-15.15 122.86-13.8 122.39-12.45 122.19-11.1L122.19-11.1Q121.99-9.8 121.81-8.3 121.64-6.8 121.81-5.35 121.99-3.9 122.74-2.58 123.49-1.25 125.09-0.3L125.09-0.3Q125.34-0.15 125.61-0.1 125.89-0.05 125.89 0L125.89 0Q125.89 0.1 125.64 0.13 125.39 0.15 125.09 0.05L125.09 0.05Q123.84-0.2 122.96-0.98 122.09-1.75 121.54-2.75 120.99-3.75 120.69-4.85 120.39-5.95 120.34-6.85L120.34-6.85Q120.04-10.8 121.44-14.65L121.44-14.65Q121.74-15.45 122.21-16.45 122.69-17.45 123.39-18.48 124.09-19.5 125.04-20.48 125.99-21.45 127.19-22.2L127.19-22.2Q128.34-22.9 129.59-23.25 130.84-23.6 132.09-23.58 133.34-23.55 134.44-23.13 135.54-22.7 136.39-21.85L136.39-21.85Q137.14-21.05 137.56-19.8 137.99-18.55 137.74-16.9ZM133.19-18.7L133.19-18.7Q133.79-18 133.34-16.53 132.89-15.05 131.24-13.55L131.24-13.55Q130.34-12.7 129.49-12.18 128.64-11.65 127.34-11.25L127.34-11.25Q126.79-9.35 126.64-7.5 126.49-5.65 126.74-4.5L126.74-4.5Q126.79-4.05 127.06-3.63 127.34-3.2 127.86-2.98 128.39-2.75 129.24-2.8 130.09-2.85 131.34-3.35L131.34-3.35Q131.69-3.5 131.76-3.43 131.84-3.35 131.44-3.1L131.44-3.1Q130.54-2.4 129.54-2.13 128.54-1.85 127.66-1.95 126.79-2.05 126.16-2.55 125.54-3.05 125.34-3.9L125.34-3.9Q124.94-5.65 124.99-7.55 125.04-9.45 125.56-11.3 126.09-13.15 127.06-14.78 128.04-16.4 129.49-17.55L129.49-17.55Q132.19-19.7 133.19-18.7ZM132.69-2.75L132.69-2.75Q132.34-2.25 131.81-1.78 131.29-1.3 130.61-0.93 129.94-0.55 129.21-0.3 128.49-0.05 127.74-0.05L127.74-0.05Q126.44-0.05 125.31-0.63 124.19-1.2 123.59-2.95L123.59-2.95Q123.49-3.15 123.49-3.33 123.49-3.5 123.59-3.5L123.59-3.5Q123.79-3.6 123.99-3.38 124.19-3.15 124.39-2.9L124.39-2.9Q124.94-2.25 125.81-1.75 126.69-1.25 127.49-1.25L127.49-1.25Q128.99-1.25 130.09-1.7 131.19-2.15 132.19-2.9L132.19-2.9Q132.44-3.05 132.76-3.2 133.09-3.35 132.69-2.75ZM131.99-17.35L131.99-17.35Q131.79-17.75 130.54-16.7L130.54-16.7Q129.39-15.8 128.71-14.63 128.04-13.45 127.54-12.05L127.54-12.05Q128.49-12.5 129.29-13.08 130.09-13.65 130.79-14.2L130.79-14.2Q131.54-14.85 131.89-15.9 132.24-16.95 131.99-17.35ZM150.89-12.65L150.89-12.65Q150.19-9.65 149.94-6.4 149.69-3.15 150.34-0.1L150.34-0.1Q150.39 0 150.31 0.13 150.24 0.25 150.14 0L150.14 0Q149.29-1.65 148.96-3.35 148.64-5.05 148.64-6.73 148.64-8.4 148.89-10.1 149.14-11.8 149.54-13.45L149.54-13.45Q149.59-13.65 149.74-14.28 149.89-14.9 149.96-15.53 150.04-16.15 149.94-16.5 149.84-16.85 149.34-16.5L149.34-16.5Q148.19-15.65 147.21-14.38 146.24-13.1 145.64-11.9L145.64-11.9Q145.59-11.8 145.41-11.33 145.24-10.85 145.06-10.3 144.89-9.75 144.74-9.22 144.59-8.7 144.54-8.55L144.54-8.55Q144.14-7 143.54-5.6 142.94-4.2 142.54-3L142.54-3Q142.39-2.5 142.34-2.55L142.34-2.55Q142.09-2.55 142.09-3L142.09-3Q141.84-5.45 142.51-7.73 143.19-10 143.99-12.4L143.99-12.4Q144.49-13.95 144.91-15.48 145.34-17 145.29-18.85L145.29-18.85Q145.24-20.15 146.26-21.4 147.29-22.65 149.34-23.5L149.34-23.5Q150.54-24 151.59-23.95 152.64-23.9 153.54-23.5 154.44-23.1 155.14-22.35 155.84-21.6 156.29-20.7L156.29-20.7Q156.59-21.25 157.19-21.88 157.79-22.5 158.61-22.95 159.44-23.4 160.46-23.63 161.49-23.85 162.74-23.65L162.74-23.65Q163.64-23.5 164.31-23.05 164.99-22.6 165.51-22.03 166.04-21.45 166.34-20.85 166.64-20.25 166.79-19.85L166.79-19.85Q167.34-18.2 167.36-16.15 167.39-14.1 166.94-12.45L166.94-12.45Q166.19-9.75 165.16-7.65 164.14-5.55 163.79-3.9L163.79-3.9Q163.64-3.35 163.59-3.35L163.59-3.35Q163.39-3.35 163.36-3.55 163.34-3.75 163.29-3.95L163.29-3.95Q163.19-5 163.56-6.63 163.94-8.25 164.44-10.13 164.94-12 165.34-13.95 165.74-15.9 165.69-17.57 165.64-19.25 164.94-20.5 164.24-21.75 162.54-22.2L162.54-22.2Q161.19-22.55 160.16-22.23 159.14-21.9 158.44-21.5L158.44-21.5Q157.39-20.8 157.09-20.03 156.79-19.25 156.79-18.55L156.79-18.55Q157.64-20.1 159.04-21.03 160.44-21.95 162.34-21.35L162.34-21.35Q163.59-20.95 164.11-19.85 164.64-18.75 164.69-17.4 164.74-16.05 164.41-14.7 164.09-13.35 163.64-12.45L163.64-12.45Q163.59-12.35 163.39-11.98 163.19-11.6 162.94-11.65L162.94-11.65Q162.89-11.65 162.91-12.05 162.94-12.45 162.94-12.65L162.94-12.65Q163.09-13.25 163.14-14.05 163.19-14.85 163.16-15.7 163.14-16.55 163.04-17.35 162.94-18.15 162.74-18.7L162.74-18.7Q162.49-19.4 161.96-19.63 161.44-19.85 160.84-19.75 160.24-19.65 159.66-19.35 159.09-19.05 158.69-18.7L158.69-18.7Q157.59-17.75 157.34-16.98 157.09-16.2 156.94-15.2L156.94-15.2Q157.54-16.2 158.41-17.07 159.29-17.95 160.14-18.5L160.14-18.5Q160.59-18.7 160.91-18.65 161.24-18.6 161.46-18.38 161.69-18.15 161.79-17.82 161.89-17.5 161.94-17.25L161.94-17.25Q162.09-15.6 161.81-14.35 161.54-13.1 161.16-11.78 160.79-10.45 160.56-8.83 160.34-7.2 160.64-4.8L160.64-4.8Q160.89-3.05 161.69-1.65 162.49-0.25 163.69 0.1L163.69 0.1Q164.04 0.2 163.86 0.25 163.69 0.3 163.59 0.3L163.59 0.3Q162.69 0.2 161.89-0.4 161.09-1 160.46-1.9 159.84-2.8 159.44-3.9 159.04-5 158.99-6.1L158.99-6.1Q158.84-8.35 159.26-10.38 159.69-12.4 160.09-13.85L160.09-13.85Q160.19-14.25 160.31-14.88 160.44-15.5 160.41-15.95 160.39-16.4 160.09-16.48 159.79-16.55 159.09-15.9L159.09-15.9Q158.09-15 157.34-13.95 156.59-12.9 156.24-11.6L156.24-11.6Q155.09-7.45 152.94-3.65L152.94-3.65Q152.84-3.45 152.69-3.28 152.54-3.1 152.49-3.15L152.49-3.15Q152.39-3.15 152.44-3.4 152.49-3.65 152.54-3.9L152.54-3.9Q152.84-5.65 153.29-7.3 153.74-8.95 154.16-10.68 154.59-12.4 154.91-14.23 155.24-16.05 155.29-18.15L155.29-18.15Q155.19-18.85 155.01-19.6 154.84-20.35 153.99-21.35L153.99-21.35Q152.99-22.45 151.64-22.5 150.29-22.55 149.44-22.25L149.44-22.25Q148.89-22.1 148.26-21.7 147.64-21.3 147.11-20.75 146.59-20.2 146.26-19.48 145.94-18.75 146.09-17.9L146.09-17.9Q146.64-18.9 147.36-19.85 148.09-20.8 149.24-21.3L149.24-21.3Q149.59-21.45 150.14-21.58 150.69-21.7 151.29-21.73 151.89-21.75 152.49-21.55 153.09-21.35 153.54-20.8L153.54-20.8Q154.34-19.8 154.41-19 154.49-18.2 154.44-17.4L154.44-17.4Q154.34-15.95 153.99-14.68 153.64-13.4 153.09-12.25L153.09-12.25Q153.04-12.1 152.84-11.78 152.64-11.45 152.54-11.45L152.54-11.45Q152.44-11.5 152.41-11.88 152.39-12.25 152.49-12.4L152.49-12.4Q152.54-12.95 152.64-14.03 152.74-15.1 152.76-16.28 152.79-17.45 152.64-18.43 152.49-19.4 151.99-19.8L151.99-19.8Q151.54-20.15 150.64-20 149.74-19.85 149.04-19.3L149.04-19.3Q148.34-18.75 147.86-18.25 147.39-17.75 147.09-17.23 146.79-16.7 146.56-16.07 146.34-15.45 146.19-14.6L146.19-14.6Q146.79-15.75 147.59-16.75 148.39-17.75 149.54-18.45L149.54-18.45Q150.34-19 150.79-18.9 151.24-18.8 151.41-18.35 151.59-17.9 151.56-17.2 151.54-16.5 151.49-15.9L151.49-15.9Q151.39-15.1 151.24-14.25 151.09-13.4 150.89-12.65ZM165.19 0.1L165.19 0.1Q165.19 0.1 164.94 0.1L164.94 0.1Q164.84 0.1 164.69 0.05L164.69 0.05Q163.99-0.1 163.19-0.58 162.39-1.05 161.84-2.35L161.84-2.35Q161.64-2.85 161.54-3.65 161.44-4.45 161.44-5.2 161.44-5.95 161.54-6.5 161.64-7.05 161.84-7L161.84-7Q161.89-7 161.96-6.78 162.04-6.55 162.09-6.25 162.14-5.95 162.19-5.65 162.24-5.35 162.24-5.2L162.24-5.2Q162.34-4.5 162.49-3.83 162.64-3.15 162.89-2.6L162.89-2.6Q163.14-1.85 163.81-1.03 164.49-0.2 165.04-0.1L165.04-0.1Q165.29 0 165.19 0.1ZM151.74 0L151.74 0Q151.84 0.35 151.74 0.35L151.74 0.35Q151.49 0.35 151.34 0.1L151.34 0.1Q151.09-0.2 150.84-0.78 150.59-1.35 150.64-2.75L150.64-2.75Q150.64-3.3 150.74-4.08 150.84-4.85 150.96-5.53 151.09-6.2 151.24-6.65 151.39-7.1 151.59-7.05L151.59-7.05Q151.64-7.05 151.66-6.83 151.69-6.6 151.71-6.3 151.74-6 151.74-5.73 151.74-5.45 151.74-5.35L151.74-5.35Q151.74-4.55 151.69-3.93 151.64-3.3 151.64-2.6L151.64-2.6Q151.64-1.65 151.64-1 151.64-0.35 151.74 0ZM144.34-16.6L144.34-16.6Q143.79-14.7 142.86-12.85 141.94-11 141.34-9.3L141.34-9.3Q141.29-9.2 141.16-8.93 141.04-8.65 140.84-8.7L140.84-8.7Q140.74-8.75 140.71-9.03 140.69-9.3 140.69-9.45L140.69-9.45Q140.69-10.25 140.96-11.58 141.24-12.9 141.54-13.75L141.54-13.75Q141.64-14.05 141.91-15.28 142.19-16.5 142.41-17.95 142.64-19.4 142.71-20.75 142.79-22.1 142.44-22.7L142.44-22.7Q142.24-23.05 142.44-23.05L142.44-23.05Q142.59-23.05 142.84-22.8L142.84-22.8Q143.44-22.25 143.81-21.45 144.19-20.65 144.36-19.78 144.54-18.9 144.51-18.05 144.49-17.2 144.34-16.6ZM141.04 0.05L141.04 0.05Q139.49-1 138.66-2.25 137.84-3.5 137.54-4.85 137.24-6.2 137.31-7.6 137.39-9 137.69-10.35L137.69-10.35Q138.09-12.15 138.71-13.93 139.34-15.7 139.91-17.38 140.49-19.05 140.81-20.65 141.14-22.25 140.89-23.7L140.89-23.7Q140.89-23.9 140.94-23.9L140.94-23.9Q141.04-23.9 141.19-23.65L141.19-23.65Q142.09-22.05 142.04-20.35 141.99-18.65 141.49-16.88 140.99-15.1 140.26-13.28 139.54-11.45 139.14-9.6L139.14-9.6Q138.89-8.45 138.81-7.18 138.74-5.9 138.99-4.65 139.24-3.4 139.81-2.2 140.39-1 141.39-0.05L141.39-0.05Q141.59 0.05 141.49 0.15L141.49 0.15Q141.39 0.25 141.26 0.18 141.14 0.1 141.04 0.05ZM142.94 0.25L142.94 0.25Q142.79 0.35 142.54 0.1L142.54 0.1Q141.99-0.3 141.46-0.75 140.94-1.2 140.44-2.2L140.44-2.2Q140.24-2.55 140.14-3.1 140.04-3.65 140.04-4.17 140.04-4.7 140.11-5.05 140.19-5.4 140.34-5.4L140.34-5.4Q140.54-5.35 140.66-4.85 140.79-4.35 140.89-4.2L140.89-4.2Q141.09-3.65 141.24-3.18 141.39-2.7 141.59-2.25L141.59-2.25Q141.89-1.55 142.19-1.05 142.49-0.55 142.89-0.05L142.89-0.05Q142.94 0 142.99 0.1 143.04 0.2 142.94 0.25ZM182.83-20.4L182.83-20.4Q183.23-19.9 183.46-19.15 183.68-18.4 183.63-17.53 183.58-16.65 183.23-15.7 182.88-14.75 182.13-13.85L182.13-13.85Q180.68-12.15 178.96-11.23 177.23-10.3 175.83-10.3L175.83-10.3Q174.98-10.3 175.83-10.6L175.83-10.6Q176.28-10.75 176.91-11.08 177.53-11.4 178.23-11.88 178.93-12.35 179.66-13 180.38-13.65 180.98-14.5L180.98-14.5Q181.98-15.9 182.16-17.23 182.33-18.55 181.63-19.25L181.63-19.25Q181.03-19.85 180.23-19.93 179.43-20 177.83-19.05L177.83-19.05Q176.38-18.2 175.23-16.95 174.08-15.7 173.08-14.3L173.08-14.3Q172.53-13.6 172.36-13.6 172.18-13.6 172.48-14.5L172.48-14.5Q173.08-16.25 174.16-17.75 175.23-19.25 176.73-20.3L176.73-20.3Q177.83-21.05 178.76-21.35 179.68-21.65 180.46-21.6 181.23-21.55 181.83-21.23 182.43-20.9 182.83-20.4ZM185.53-16.9L185.53-16.9Q185.33-15.7 184.91-14.88 184.48-14.05 183.96-13.48 183.43-12.9 182.91-12.55 182.38-12.2 181.98-11.9L181.98-11.9Q181.78-11.75 181.68-11.85 181.58-11.95 181.83-12.2L181.83-12.2Q182.73-12.95 183.66-14.23 184.58-15.5 184.63-17.05L184.63-17.05Q184.63-19.7 183.33-21.1L183.33-21.1Q182.03-22.5 180.08-22.33 178.13-22.15 176.03-20.8L176.03-20.8Q174.68-19.95 173.66-18.82 172.63-17.7 171.88-16.43 171.13-15.15 170.66-13.8 170.18-12.45 169.98-11.1L169.98-11.1Q169.78-9.8 169.61-8.3 169.43-6.8 169.61-5.35 169.78-3.9 170.53-2.58 171.28-1.25 172.88-0.3L172.88-0.3Q173.13-0.15 173.41-0.1 173.68-0.05 173.68 0L173.68 0Q173.68 0.1 173.43 0.13 173.18 0.15 172.88 0.05L172.88 0.05Q171.63-0.2 170.76-0.98 169.88-1.75 169.33-2.75 168.78-3.75 168.48-4.85 168.18-5.95 168.13-6.85L168.13-6.85Q167.83-10.8 169.23-14.65L169.23-14.65Q169.53-15.45 170.01-16.45 170.48-17.45 171.18-18.48 171.88-19.5 172.83-20.48 173.78-21.45 174.98-22.2L174.98-22.2Q176.13-22.9 177.38-23.25 178.63-23.6 179.88-23.58 181.13-23.55 182.23-23.13 183.33-22.7 184.18-21.85L184.18-21.85Q184.93-21.05 185.36-19.8 185.78-18.55 185.53-16.9ZM180.98-18.7L180.98-18.7Q181.58-18 181.13-16.53 180.68-15.05 179.03-13.55L179.03-13.55Q178.13-12.7 177.28-12.18 176.43-11.65 175.13-11.25L175.13-11.25Q174.58-9.35 174.43-7.5 174.28-5.65 174.53-4.5L174.53-4.5Q174.58-4.05 174.86-3.63 175.13-3.2 175.66-2.98 176.18-2.75 177.03-2.8 177.88-2.85 179.13-3.35L179.13-3.35Q179.48-3.5 179.56-3.43 179.63-3.35 179.23-3.1L179.23-3.1Q178.33-2.4 177.33-2.13 176.33-1.85 175.46-1.95 174.58-2.05 173.96-2.55 173.33-3.05 173.13-3.9L173.13-3.9Q172.73-5.65 172.78-7.55 172.83-9.45 173.36-11.3 173.88-13.15 174.86-14.78 175.83-16.4 177.28-17.55L177.28-17.55Q179.98-19.7 180.98-18.7ZM180.48-2.75L180.48-2.75Q180.13-2.25 179.61-1.78 179.08-1.3 178.41-0.93 177.73-0.55 177.01-0.3 176.28-0.05 175.53-0.05L175.53-0.05Q174.23-0.05 173.11-0.63 171.98-1.2 171.38-2.95L171.38-2.95Q171.28-3.15 171.28-3.33 171.28-3.5 171.38-3.5L171.38-3.5Q171.58-3.6 171.78-3.38 171.98-3.15 172.18-2.9L172.18-2.9Q172.73-2.25 173.61-1.75 174.48-1.25 175.28-1.25L175.28-1.25Q176.78-1.25 177.88-1.7 178.98-2.15 179.98-2.9L179.98-2.9Q180.23-3.05 180.56-3.2 180.88-3.35 180.48-2.75ZM179.78-17.35L179.78-17.35Q179.58-17.75 178.33-16.7L178.33-16.7Q177.18-15.8 176.51-14.63 175.83-13.45 175.33-12.05L175.33-12.05Q176.28-12.5 177.08-13.08 177.88-13.65 178.58-14.2L178.58-14.2Q179.33-14.85 179.68-15.9 180.03-16.95 179.78-17.35ZM202.33-17.95L202.33-17.95Q202.43-16.4 202.13-14.98 201.83-13.55 201.38-12.35L201.38-12.35Q201.28-12.1 201.06-11.8 200.83-11.5 200.63-11.6L200.63-11.6Q200.53-11.6 200.58-11.95 200.63-12.3 200.63-12.45L200.63-12.45Q200.68-13 200.71-13.83 200.73-14.65 200.73-15.5 200.73-16.35 200.66-17.13 200.58-17.9 200.43-18.45L200.43-18.45Q199.98-20.05 199.01-20.23 198.03-20.4 197.03-19.7 196.03-19 195.13-17.75 194.23-16.5 193.93-15.3L193.93-15.3Q194.23-15.75 194.71-16.38 195.18-17 195.78-17.57 196.38-18.15 197.06-18.53 197.73-18.9 198.33-18.85L198.33-18.85Q198.98-18.8 199.26-18.15 199.53-17.5 199.58-16.55 199.63-15.6 199.48-14.5 199.33-13.4 199.13-12.45L199.13-12.45Q198.78-10.9 198.53-9.25 198.28-7.6 198.36-6.03 198.43-4.45 198.91-2.98 199.38-1.5 200.53-0.25L200.53-0.25Q200.63-0.1 200.68 0 200.73 0.1 200.43-0.05L200.43-0.05Q199.13-0.8 198.36-1.8 197.58-2.8 197.18-3.95 196.78-5.1 196.71-6.35 196.63-7.6 196.73-8.85L196.73-8.85Q196.93-10.65 197.33-12 197.73-13.35 197.93-15.05L197.93-15.05Q198.03-16.1 197.78-16.43 197.53-16.75 197.18-16.8L197.18-16.8Q196.68-16.85 196.06-16.28 195.43-15.7 194.76-14.65 194.08-13.6 193.46-12.2 192.83-10.8 192.38-9.25L192.38-9.25Q191.98-7.7 191.41-6.03 190.83-4.35 190.33-3.15L190.33-3.15Q190.13-2.7 190.03-2.7L190.03-2.7Q189.93-2.7 189.86-2.9 189.78-3.1 189.78-3.2L189.78-3.2Q189.58-5.7 190.23-8.15 190.88-10.6 191.73-13.1L191.73-13.1Q192.23-14.65 192.63-15.85 193.03-17.05 193.03-18.9L193.03-18.9Q193.03-19.7 193.43-20.58 193.83-21.45 194.61-22.18 195.38-22.9 196.53-23.35 197.68-23.8 199.13-23.75L199.13-23.75Q201.53-23.7 202.83-22.63 204.13-21.55 204.66-19.9 205.18-18.25 205.11-16.32 205.03-14.4 204.68-12.6L204.68-12.6Q204.38-11.25 203.98-10.15 203.58-9.05 203.13-8.1 202.68-7.15 202.28-6.3 201.88-5.45 201.63-4.6L201.63-4.6Q201.58-4.45 201.53-4.28 201.48-4.1 201.38-4.1L201.38-4.1Q201.28-4.1 201.23-4.3 201.18-4.5 201.18-4.75L201.18-4.75Q201.08-6.45 201.53-8.03 201.98-9.6 202.48-11.28 202.98-12.95 203.23-14.8 203.48-16.65 203.03-18.9L203.03-18.9Q202.58-21.3 200.83-22.1 199.08-22.9 196.83-22L196.83-22Q196.53-21.85 196.03-21.55 195.53-21.25 195.06-20.75 194.58-20.25 194.18-19.58 193.78-18.9 193.68-18.1L193.68-18.1Q194.28-19 195.08-19.8 195.88-20.6 196.78-21.08 197.68-21.55 198.61-21.65 199.53-21.75 200.43-21.3L200.43-21.3Q201.48-20.75 201.88-19.78 202.28-18.8 202.33-17.95ZM192.13-16.6L192.13-16.6Q191.58-14.7 190.66-12.85 189.73-11 189.13-9.3L189.13-9.3Q189.08-9.2 188.96-8.93 188.83-8.65 188.63-8.7L188.63-8.7Q188.53-8.75 188.51-9.03 188.48-9.3 188.48-9.45L188.48-9.45Q188.48-10.25 188.76-11.58 189.03-12.9 189.33-13.75L189.33-13.75Q189.43-14.05 189.71-15.28 189.98-16.5 190.21-17.95 190.43-19.4 190.51-20.75 190.58-22.1 190.23-22.7L190.23-22.7Q190.03-23.05 190.23-23.05L190.23-23.05Q190.38-23.05 190.63-22.8L190.63-22.8Q191.23-22.25 191.61-21.45 191.98-20.65 192.16-19.78 192.33-18.9 192.31-18.05 192.28-17.2 192.13-16.6ZM202.33-0.05L202.33-0.05Q202.23 0 201.93-0.1L201.93-0.1Q201.78-0.15 201.68-0.2L201.68-0.2Q200.98-0.65 200.48-1.23 199.98-1.8 199.48-3.2L199.48-3.2Q199.33-3.7 199.26-4.48 199.18-5.25 199.23-6 199.28-6.75 199.41-7.28 199.53-7.8 199.78-7.8L199.78-7.8Q199.88-7.8 200.01-7.23 200.13-6.65 200.26-5.9 200.38-5.15 200.53-4.4 200.68-3.65 200.78-3.3L200.78-3.3Q201.03-2.55 201.28-1.8 201.53-1.05 202.08-0.5L202.08-0.5Q202.18-0.4 202.28-0.23 202.38-0.05 202.33-0.05ZM188.83 0.05L188.83 0.05Q187.28-1 186.46-2.25 185.63-3.5 185.33-4.85 185.03-6.2 185.11-7.6 185.18-9 185.48-10.35L185.48-10.35Q185.88-12.15 186.51-13.93 187.13-15.7 187.71-17.38 188.28-19.05 188.61-20.65 188.93-22.25 188.68-23.7L188.68-23.7Q188.68-23.9 188.73-23.9L188.73-23.9Q188.83-23.9 188.98-23.65L188.98-23.65Q189.88-22.05 189.83-20.35 189.78-18.65 189.28-16.88 188.78-15.1 188.06-13.28 187.33-11.45 186.93-9.6L186.93-9.6Q186.68-8.45 186.61-7.18 186.53-5.9 186.78-4.65 187.03-3.4 187.61-2.2 188.18-1 189.18-0.05L189.18-0.05Q189.38 0.05 189.28 0.15L189.28 0.15Q189.18 0.25 189.06 0.18 188.93 0.1 188.83 0.05ZM190.73 0.25L190.73 0.25Q190.58 0.35 190.33 0.1L190.33 0.1Q189.78-0.3 189.26-0.75 188.73-1.2 188.23-2.2L188.23-2.2Q188.03-2.55 187.93-3.1 187.83-3.65 187.83-4.17 187.83-4.7 187.91-5.05 187.98-5.4 188.13-5.4L188.13-5.4Q188.33-5.35 188.46-4.85 188.58-4.35 188.68-4.2L188.68-4.2Q188.88-3.65 189.03-3.18 189.18-2.7 189.38-2.25L189.38-2.25Q189.68-1.55 189.98-1.05 190.28-0.55 190.68-0.05L190.68-0.05Q190.73 0 190.78 0.1 190.83 0.2 190.73 0.25ZM220.28-22.2L220.28-22.2Q220.33-22.15 220.33-21.98 220.33-21.8 220.28-21.7L220.28-21.7Q219.83-20.25 218.73-19.65 217.63-19.05 216.78-19.05L216.78-19.05Q215.73-19.05 214.63-19.23 213.53-19.4 212.53-20.15L212.53-20.15Q212.43-20.25 212.28-20.35 212.13-20.45 212.13-20.55L212.13-20.55Q212.13-20.7 212.28-20.78 212.43-20.85 212.53-20.9L212.53-20.9Q212.98-21 213.7-21.08 214.43-21.15 215.13-21.05L215.13-21.05Q215.63-20.95 216.33-20.95 217.03-20.95 217.75-21.05 218.48-21.15 219.08-21.38 219.68-21.6 219.98-22.05L219.98-22.05Q220.13-22.25 220.28-22.2ZM220.63-23.75L220.63-23.75 220.48-23.5Q219.63-22.4 218.68-22.08 217.73-21.75 216.68-21.8 215.63-21.85 214.55-22.08 213.48-22.3 212.43-22.35L212.43-22.35Q211.03-22.4 209.63-21.5 208.23-20.6 207.23-18.35L207.23-18.35Q207.08-18.05 207.03-18.23 206.98-18.4 207.03-18.55L207.03-18.55Q207.43-20.05 207.98-21.05 208.53-22.05 209.15-22.68 209.78-23.3 210.48-23.6 211.18-23.9 211.93-24L211.93-24Q212.78-26.85 213.25-29.58 213.73-32.3 213.33-34.75L213.33-34.75Q213.33-34.95 213.33-34.95L213.33-34.95Q213.43-35 213.53-34.9 213.63-34.8 213.63-34.75L213.63-34.75Q214.73-32.35 214.53-29.63 214.33-26.9 213.53-23.9L213.53-23.9Q213.78-23.85 213.93-23.85 214.08-23.85 214.28-23.85L214.28-23.85Q214.53-25.15 214.75-26.63 214.98-28.1 215.1-29.45 215.23-30.8 215.18-31.9 215.13-33 214.83-33.55L214.83-33.55Q214.68-34 214.83-34L214.83-34Q214.93-34 214.98-33.9 215.03-33.8 215.13-33.7L215.13-33.7Q215.83-33 216.23-31.8 216.63-30.6 216.78-29.25 216.93-27.9 216.88-26.58 216.83-25.25 216.58-24.25L216.58-24.25 216.38-23.45Q216.53-23.35 216.68-23.35 216.83-23.35 216.98-23.3L216.98-23.3Q217.28-24.8 217.5-26.3 217.73-27.8 217.68-29.45L217.68-29.45Q217.68-29.8 217.73-29.8L217.73-29.8Q217.83-29.8 217.88-29.65 217.93-29.5 217.98-29.4L217.98-29.4Q218.58-28.3 218.55-26.65 218.53-25 218.28-23.15L218.28-23.15Q219.38-23.15 220.38-23.75L220.38-23.75Q220.63-23.9 220.63-23.75ZM210.28-20.35L210.28-20.35Q210.28-20.1 210-19.85 209.73-19.6 209.58-19.5L209.58-19.5Q209.33-19.3 209-19.03 208.68-18.75 208.43-18.45L208.43-18.45Q208.18-18.05 207.95-17.75 207.73-17.45 207.58-16.9L207.58-16.9Q207.53-16.8 207.45-16.73 207.38-16.65 207.33-16.7L207.33-16.7Q207.18-16.85 207.33-17.35L207.33-17.35Q207.53-18.1 207.73-18.57 207.93-19.05 208.48-19.6L208.48-19.6Q208.68-19.8 208.98-20 209.28-20.2 209.58-20.35 209.88-20.5 210.08-20.5 210.28-20.5 210.28-20.35ZM214.18-0.25L214.18-0.25Q214.43-0.35 214.38-0.2 214.33-0.05 214.23 0L214.23 0Q213.33 0.3 212.33-0.1 211.33-0.5 210.48-1.35 209.63-2.2 209.03-3.33 208.43-4.45 208.28-5.55L208.28-5.55Q208.03-7.9 208.23-10.1 208.43-12.3 208.98-14.45L208.98-14.45 209.83-17.6Q209.53-17.6 209.23-17.75L209.23-17.75Q208.88-17.85 208.88-18L208.88-18Q208.88-18.1 209.23-18.3L209.23-18.3Q210.63-19 212.05-18.9 213.48-18.8 214.93-18.55L214.93-18.55Q215.83-18.4 216.75-18.32 217.68-18.25 218.78-18.7L218.78-18.7Q218.88-18.8 218.98-18.75L218.98-18.75Q219.08-18.65 218.93-18.4L218.93-18.4Q218.63-17.75 218.08-17.45 217.53-17.15 216.93-17L216.93-17Q216.53-15.7 216.23-14.68 215.93-13.65 215.73-12.95L215.73-12.95Q215.18-10.55 214.45-8.08 213.73-5.6 213.48-3.9L213.48-3.9Q213.38-3.35 213.28-3.3L213.28-3.3Q213.18-3.25 213.08-3.5 212.98-3.75 212.93-3.9L212.93-3.9Q212.73-5.35 212.85-6.93 212.98-8.5 213.33-10.15 213.68-11.8 214.13-13.48 214.58-15.15 215.08-16.85L215.08-16.85Q214.83-16.85 214.58-16.85 214.33-16.85 214.08-16.9L214.08-16.9Q213.68-15.85 213.25-14.83 212.83-13.8 212.43-12.9L212.43-12.9Q212.38-12.8 212.2-12.43 212.03-12.05 211.93-12.05L211.93-12.05Q211.73-12.1 211.78-12.53 211.83-12.95 211.83-13.1L211.83-13.1Q211.93-13.85 212.15-14.85 212.38-15.85 212.58-17L212.58-17Q212.33-17.05 212.03-17.07 211.73-17.1 211.43-17.2L211.43-17.2Q211.13-16.2 210.85-15.25 210.58-14.3 210.33-13.35L210.33-13.35Q209.93-11.6 209.73-9.63 209.53-7.65 209.73-5.55L209.73-5.55Q209.83-4.6 210.25-3.6 210.68-2.6 211.28-1.8 211.88-1 212.65-0.55 213.43-0.1 214.18-0.25ZM214.63-1.35L214.63-1.35Q214.88-1.55 214.93-1.38 214.98-1.2 214.73-1.05L214.73-1.05Q214.53-0.9 214.2-0.83 213.88-0.75 213.48-0.8 213.08-0.85 212.63-1.1 212.18-1.35 211.78-1.9L211.78-1.9Q211.43-2.35 211.2-3.2 210.98-4.05 210.88-4.88 210.78-5.7 210.83-6.3 210.88-6.9 211.08-6.9L211.08-6.9Q211.33-6.9 211.45-6.2 211.58-5.5 211.68-5.05L211.68-5.05Q211.88-4.25 212.23-3.4 212.58-2.55 212.98-2.05L212.98-2.05Q213.48-1.4 213.88-1.28 214.28-1.15 214.63-1.35Z" opacity="1" transform="matrix(1,0,0,1,0,0)" fill="#1d597d" class="slogan-text-1" data-fill-palette-color="secondary" id="text-1"></path></svg></g></svg></g></svg></g></svg></g><g><svg viewBox="0 0 244.43135999999998 260.59359171978764" height="260.59359171978764" width="244.43135999999998"><g><svg xmlns="http://www.w3.org/2000/svg" xml:space="preserve" version="1.0" viewBox="2.977 1 45.023 48" x="0" y="0" height="260.59359171978764" width="244.43135999999998" class="icon-icon-0" data-fill-palette-color="accent" id="icon-0"><path d="M25.545 10.997c12.468 0 21.576-2.238 21.576-4.999S38.014 1 25.545 1C13.077 1 3.97 3.238 3.97 5.999s9.107 4.998 21.575 4.998M41.424 30.931c2.299 0 4.592 0.908 6.131 2.381 0.082-0.071-0.555-0.141 0.445-0.209V22.224c-5 2.167-13.603 3.289-22.501 3.289S8 24.391 3 22.224v10.877c2 1.685 10.002 3.748 22.289 3.748 2.846 0 5.591-0.114 7.97-0.306 1.207-3.272 4.471-5.612 8.165-5.612M32.852 39.503c0-0.384 0.035-0.758 0.084-1.128-2.398 0.175-5.152 0.267-7.646 0.267-8.899 0-17.29-1.121-22.29-3.289v8.564c0 0.066-0.023 0.133-0.023 0.2s0.023 0.133 0.023 0.199v0.007C3 46.714 13.422 49 25.289 49c5.361 0 10.304-0.44 14.067-1.153-3.798-0.88-6.504-4.278-6.504-8.344" fill="#83b6b9" data-fill-palette-color="accent"></path><path d="M48 19.974V9.065c-4 2.376-13.331 3.607-22.501 3.607S7 11.441 3 9.065v10.909c2 1.685 10.212 3.747 22.499 3.747C37.788 23.721 46 21.658 48 19.974M43.477 45.06c0 0.838-0.898 1.52-1.738 1.518-0.84 0.002-1.738-0.68-1.738-1.52v-5.873c0-0.838 0.9-1.52 1.74-1.52 0.836 0.002 1.626 0.682 1.629 1.52z" fill="#83b6b9" data-fill-palette-color="accent"></path><path d="M36.717 42l5.242-9.079L47.201 42z" fill="#83b6b9" data-fill-palette-color="accent"></path></svg></g></svg></g></svg></g><defs></defs></svg><rect width="395.52" height="154.26586441148322" fill="none" stroke="none" visibility="hidden"></rect></g></svg></g></svg>