<svg xmlns="http://www.w3.org/2000/svg" version="1.1" xmlns:xlink="http://www.w3.org/1999/xlink" xmlns:svgjs="http://svgjs.dev/svgjs" width="1500" height="1500" viewBox="0 0 1500 1500"><rect width="1500" height="1500" fill="#ffffff"></rect><g transform="matrix(0.6666666666666666,0,0,0.6666666666666666,249.78425655976667,249.78425655976673)"><svg viewBox="0 0 343 343" data-background-color="#ffffff" preserveAspectRatio="xMidYMid meet" height="1500" width="1500" xmlns="http://www.w3.org/2000/svg" xmlns:xlink="http://www.w3.org/1999/xlink"><g id="tight-bounds" transform="matrix(1,0,0,1,0.0740000000000407,0.07400000000001228)"><svg viewBox="0 0 342.85155851775386 342.85155851775386" height="342.85155851775386" width="342.85155851775386"><g><svg></svg></g><g><svg viewBox="0 0 342.85155851775386 342.85155851775386" height="342.85155851775386" width="342.85155851775386"><g><path d="M0 171.426c0-94.676 76.75-171.426 171.426-171.426 94.676 0 171.426 76.75 171.426 171.426 0 94.676-76.75 171.426-171.426 171.426-94.676 0-171.426-76.75-171.426-171.426zM171.426 339.649c92.907 0 168.224-75.316 168.223-168.223 0-92.907-75.316-168.224-168.223-168.224-92.907 0-168.224 75.316-168.224 168.224 0 92.907 75.316 168.224 168.224 168.223z" data-fill-palette-color="tertiary" fill="#906b7f" stroke="transparent"></path><ellipse rx="164.56874808852186" ry="164.56874808852186" cx="171.42577925887693" cy="171.42577925887693" fill="#906b7f" stroke="transparent" stroke-width="0" fill-opacity="1" data-fill-palette-color="tertiary"></ellipse></g><g transform="matrix(1,0,0,1,64.84655864529837,125.92279037137166)"><svg viewBox="0 0 213.1584412271571 91.00597777501055" height="91.00597777501055" width="213.1584412271571"><g><svg viewBox="0 0 363.4483099319225 155.1708139054251" height="91.00597777501055" width="213.1584412271571"><g><rect width="5.460089148803784" height="112.84129375901027" x="227.4518683182665" y="21.16476007320741" fill="#906b7f" opacity="1" stroke-width="0" stroke="transparent" fill-opacity="1" class="rect-yte-0" data-fill-palette-color="primary" rx="1%" id="yte-0" data-palette-color="#906b7f"></rect></g><g transform="matrix(1,0,0,1,0,21.445459808926337)"><svg viewBox="0 0 213.1584412271571 112.27989428757242" height="112.27989428757242" width="213.1584412271571"><g id="textblocktransform"><svg viewBox="0 0 213.1584412271571 112.27989428757242" height="112.27989428757242" width="213.1584412271571" id="textblock"><g><svg viewBox="0 0 213.1584412271571 60.54587120719337" height="60.54587120719337" width="213.1584412271571"><g transform="matrix(1,0,0,1,0,0)"><svg width="213.1584412271571" viewBox="2.1 -32.3 115.29 32.75" height="60.54587120719337" data-palette-color="#ffffff"><path d="M13.35-32.3Q16.8-32.3 20.5-30.8L20.5-30.8 19.85-26.95 19.15-26.75Q17.7-27.85 16.07-28.45 14.45-29.05 12.85-29.05L12.85-29.05Q11-29.05 9.63-28.3 8.25-27.55 7.53-26.35 6.8-25.15 6.8-23.85L6.8-23.85Q6.8-22.5 7.63-21.48 8.45-20.45 9.7-19.7 10.95-18.95 13.1-17.9L13.1-17.9Q15.8-16.65 17.45-15.58 19.1-14.5 20.28-12.85 21.45-11.2 21.45-8.85L21.45-8.85Q21.45-6.35 20.1-4.25 18.75-2.15 16.3-0.9 13.85 0.35 10.7 0.35L10.7 0.35Q8.6 0.35 6.33-0.23 4.05-0.8 2.1-1.9L2.1-1.9 2.6-6 3.15-6.25Q4.9-4.55 7.03-3.73 9.15-2.9 11.1-2.9L11.1-2.9Q13-2.9 14.48-3.65 15.95-4.4 16.73-5.65 17.5-6.9 17.5-8.3L17.5-8.3Q17.5-10.4 15.9-11.68 14.3-12.95 11.05-14.45L11.05-14.45Q8.4-15.75 6.8-16.78 5.2-17.8 4.05-19.43 2.9-21.05 2.9-23.4L2.9-23.4Q2.9-25.85 4.23-27.9 5.55-29.95 7.93-31.13 10.3-32.3 13.35-32.3L13.35-32.3ZM42.85-24.9L43.05-24.6 42.8-21.45 38.15-21.8 35.65-21.8 35.5-7.8 35.65 0 31.9 0 32.05-7.5 31.95-21.8 29.45-21.8 24.7-21.45 24.4-21.8 24.7-24.9 42.85-24.9ZM56.95-25.2Q62.4-25.2 65.32-22 68.25-18.8 68.25-12.95L68.25-12.95Q68.25-6.6 65.12-3.13 62 0.35 56.2 0.35L56.2 0.35Q50.8 0.35 47.85-2.93 44.9-6.2 44.9-12.25L44.9-12.25Q44.9-18.45 48.05-21.83 51.2-25.2 56.95-25.2L56.95-25.2ZM56.6-22.05Q52.65-22.05 50.72-19.8 48.8-17.55 48.8-12.7L48.8-12.7Q48.8-7.5 50.7-5.15 52.6-2.8 56.5-2.8L56.5-2.8Q60.5-2.8 62.45-5.1 64.4-7.4 64.4-12.3L64.4-12.3Q64.4-17.35 62.47-19.7 60.55-22.05 56.6-22.05L56.6-22.05ZM84.69-25.15Q88.84-25.15 91.89-23.4L91.89-23.4 91.19-19.95 90.74-19.8Q89.49-20.85 87.84-21.45 86.19-22.05 84.29-22.05L84.29-22.05Q80.59-22.05 78.64-19.68 76.69-17.3 76.69-12.6L76.69-12.6Q76.69-7.85 78.64-5.35 80.59-2.85 84.29-2.85L84.29-2.85Q86.09-2.85 87.92-3.48 89.74-4.1 91.19-5.15L91.19-5.15 91.64-5 91.29-1.55Q87.89 0.3 84.14 0.3L84.14 0.3Q78.64 0.3 75.69-2.98 72.74-6.25 72.74-12.3L72.74-12.3Q72.74-18.45 75.87-21.8 78.99-25.15 84.69-25.15L84.69-25.15ZM116.74-24.95L106.14-13.25Q111.44-6.75 117.39-0.85L117.39-0.85 117.29-0.3Q115.74 0.2 113.69 0.45L113.69 0.45 113.09 0.2Q106.69-7 102.04-13L102.04-13 102.04-13.3 110.64-22.7 112.29-24.9 116.74-24.95ZM101.79-24.9L101.64-7.8 101.74 0 98.04 0 98.19-7.5 98.04-24.9 101.79-24.9Z" opacity="1" transform="matrix(1,0,0,1,0,0)" fill="#ffffff" class="wordmark-text-0" data-fill-palette-color="quaternary" id="text-0"></path></svg></g></svg></g><g transform="matrix(1,0,0,1,88.01312038269317,74.83929829830275)"><svg viewBox="0 0 125.14532084446394 37.44059598926966" height="37.44059598926966" width="125.14532084446394"><g transform="matrix(1,0,0,1,0,0)"><svg width="125.14532084446394" viewBox="2.3 -36 121.49000000000001 36.35" height="37.44059598926966" data-palette-color="#ffffff"><path d="M2.3-6.45L5.9-7.65Q6.2-6.15 7-5.18 7.8-4.2 9.08-3.7 10.35-3.2 12.05-3.2L12.05-3.2Q14.7-3.2 16.07-4.23 17.45-5.25 17.45-6.8L17.45-6.8Q17.45-8.1 16.63-8.9 15.8-9.7 14.45-10.23 13.1-10.75 11.45-11.15L11.45-11.15Q10.15-11.45 8.65-11.88 7.15-12.3 5.8-13.05 4.45-13.8 3.6-15 2.75-16.2 2.75-18.15L2.75-18.15Q2.75-20.3 3.93-21.93 5.1-23.55 7.18-24.45 9.25-25.35 11.95-25.35L11.95-25.35Q15.05-25.35 17.48-24 19.9-22.65 20.85-19.8L20.85-19.8 17.35-18.6Q17-19.9 16.07-20.6 15.15-21.3 14.03-21.55 12.9-21.8 11.8-21.8L11.8-21.8Q9.55-21.8 8.18-20.93 6.8-20.05 6.8-18.3L6.8-18.3Q6.8-17.35 7.25-16.73 7.7-16.1 8.5-15.7 9.3-15.3 10.4-15.03 11.5-14.75 12.8-14.4L12.8-14.4Q14.25-14.05 15.75-13.53 17.25-13 18.55-12.18 19.85-11.35 20.68-10.08 21.5-8.8 21.5-6.9L21.5-6.9Q21.5-4.7 20.3-3.08 19.1-1.45 16.98-0.55 14.85 0.35 12.05 0.35L12.05 0.35Q8.2 0.35 5.68-1.38 3.15-3.1 2.3-6.45L2.3-6.45ZM25.45-25L29.2-25 29.2-32 32.95-32 32.95-25 39.6-25 39.6-21.5 32.95-21.5 32.95-8.05Q32.95-5.75 33.92-4.7 34.9-3.65 36.42-3.45 37.95-3.25 39.6-3.45L39.6-3.45 39.6-0.2Q37.65 0.25 35.77 0.05 33.9-0.15 32.42-1.07 30.95-2 30.07-3.7 29.2-5.4 29.2-8.05L29.2-8.05 29.2-21.5 25.45-21.5 25.45-25ZM55.99 0.35L55.99 0.35Q52.45 0.35 49.64-1.2 46.84-2.75 45.24-5.63 43.64-8.5 43.64-12.45L43.64-12.45Q43.64-16.45 45.27-19.35 46.89-22.25 49.72-23.8 52.55-25.35 56.09-25.35L56.09-25.35Q59.64-25.35 62.47-23.8 65.3-22.25 66.92-19.38 68.55-16.5 68.55-12.55L68.55-12.55Q68.55-8.55 66.89-5.65 65.25-2.75 62.39-1.2 59.55 0.35 55.99 0.35ZM55.95-3.2L55.95-3.2Q58.14-3.2 60.09-4.17 62.05-5.15 63.27-7.23 64.5-9.3 64.5-12.5L64.5-12.5Q64.5-15.75 63.3-17.8 62.09-19.85 60.17-20.83 58.25-21.8 56.05-21.8L56.05-21.8Q53.84-21.8 51.95-20.83 50.05-19.85 48.87-17.78 47.7-15.7 47.7-12.5L47.7-12.5Q47.7-9.25 48.84-7.2 49.99-5.15 51.87-4.17 53.74-3.2 55.95-3.2ZM85.34 0.35L85.34 0.35Q81.69 0.35 78.94-1.25 76.19-2.85 74.67-5.73 73.14-8.6 73.14-12.4L73.14-12.4Q73.14-16.25 74.67-19.18 76.19-22.1 78.94-23.73 81.69-25.35 85.34-25.35L85.34-25.35Q89.19-25.35 92.09-23.58 94.99-21.8 96.29-18.65L96.29-18.65 92.84-17.45Q92.09-19.45 90.12-20.63 88.14-21.8 85.54-21.8L85.54-21.8Q82.99-21.8 81.12-20.65 79.24-19.5 78.22-17.4 77.19-15.3 77.19-12.45L77.19-12.45Q77.19-8.25 79.44-5.73 81.69-3.2 85.44-3.2L85.44-3.2Q87.99-3.2 89.99-4.35 91.99-5.5 92.94-7.45L92.94-7.45 96.34-6.25Q94.99-3.15 92.09-1.4 89.19 0.35 85.34 0.35ZM102.49 0L102.49-36 106.29-36 106.29-14.15 108.59-14.15 118.44-25 123.74-25 111.94-12.5 123.79 0 118.44 0 108.59-10.9 106.29-10.9 106.29 0 102.49 0Z" opacity="1" transform="matrix(1,0,0,1,0,0)" fill="#ffffff" class="slogan-text-1" data-fill-palette-color="quaternary" id="text-1"></path></svg></g></svg></g></svg></g></svg></g><g transform="matrix(1,0,0,1,247.20538455817965,0)"><svg viewBox="0 0 116.2429253737428 155.1708139054251" height="155.1708139054251" width="116.2429253737428"><g><svg xmlns="http://www.w3.org/2000/svg" xml:space="preserve" viewBox="17.754 7.955 64.491 86.088" x="0" y="0" height="155.1708139054251" width="116.2429253737428" class="icon-icon-0" data-fill-palette-color="quaternary" id="icon-0"><path d="M64.352 56.964c-9.878 0-17.895 8.015-17.895 17.894s8.017 17.893 17.895 17.893c9.875 0 17.893-8.015 17.893-17.893-0.001-9.879-8.016-17.894-17.893-17.894M76.28 79.33h-7.455v7.456h-8.947V79.33h-7.455v-8.946h7.455v-7.455h8.947v7.455h7.455zM46.457 49.333c13.829 0 28.705-4.661 28.705-14.905V22.869c0-10.244-14.876-14.914-28.705-14.914s-28.7 4.667-28.7 14.914v11.559c0 10.244 14.874 14.905 28.7 14.905m0-35.413c12.56 0 22.74 4.009 22.74 8.946 0 4.945-10.181 8.946-22.74 8.946s-22.739-4.004-22.739-8.946c0.003-4.934 10.184-8.946 22.739-8.946m-2.982 60.937c0-0.094 0.012-0.187 0.015-0.28-10.446-0.466-20.494-3.378-25.468-9.202a9.8 9.8 0 0 0-0.268 2.201v11.562c0 10.252 14.875 14.905 28.703 14.905 2.812 0 5.66-0.204 8.43-0.6-6.768-3.448-11.412-10.461-11.412-18.586m0.274-3.226c1.557-9.995 10.171-17.648 20.603-17.648a20.67 20.67 0 0 1 10.787 3.034c0-0.072 0.023-0.151 0.023-0.228V45.232c0-0.766-0.111-1.494-0.269-2.197-5.445 6.354-16.964 9.299-28.439 9.299-11.473 0-22.986-2.944-28.429-9.296a9.8 9.8 0 0 0-0.271 2.194v11.557c0.003 9.57 13.002 14.276 25.995 14.842" fill="#ffffff" data-fill-palette-color="quaternary"></path></svg></g></svg></g></svg></g></svg></g></svg></g><defs></defs></svg><rect width="342.85155851775386" height="342.85155851775386" fill="none" stroke="none" visibility="hidden"></rect></g></svg></g></svg>